<svg xmlns="http://www.w3.org/2000/svg" xmlns:xlink="http://www.w3.org/1999/xlink" width="432.068" height="310.483" viewBox="0 0 432.068 310.483">
  <defs>
    <linearGradient id="linear-gradient" x1="0.5" x2="0.5" y2="1" gradientUnits="objectBoundingBox">
      <stop offset="0" stop-color="#5261fa"/>
      <stop offset="0.992" stop-color="#1a2df3"/>
      <stop offset="1" stop-color="#003394"/>
    </linearGradient>
  </defs>
  <g id="OBJECTS" transform="translate(-33.966 -89.14)">
    <g id="Group_58" data-name="Group 58">
      <g id="Group_57" data-name="Group 57">
        <g id="Group_1" data-name="Group 1">
          <path id="Path_1" data-name="Path 1" d="M434.353,399.558c25.375,0,40.737-25.985,25.823-44.488q-.471-.585-.973-1.153c-9.119-10.338-22.959-14.042-35.217-19.811-3.387-1.594-6.794-3.456-9.159-6.454-3.293-4.174-4.083-10.011-3.4-15.378,2.849-22.46,27.341-36.3,31.294-58.58,2.99-16.851-7.326-33.962-21.3-42.881s-30.863-11.162-47.214-11.859-32.928-.079-48.843-4.066c-4.2-1.052-8.543-2.565-11.395-5.956-3.234-3.845-3.913-9.4-3.4-14.5,1.386-13.737,32.688-60.966,17.011-76.551a28.751,28.751,0,0,0-22.971-8.611c-8.425.846-16.3,4.714-23.672,9.06-15.589,9.183-69.964,70.059-89.529,79.26-19.228,9.042-41.311,6.383-62.384,5.949s-44.494,2.706-58.267,19.417c-4.878,5.918-8.246,13.891-6.608,21.519,1.022,4.76,3.872,8.877,7.109,12.385,7.394,8.012,17.034,13.538,24.027,21.935s10.685,21.728,4.108,30.487c-2.552,3.4-6.263,5.584-9.9,7.633C69.167,308.377,46.36,320.14,37.481,342.46c-4.534,11.4-4.448,23.966-1.081,35.8,3.566,12.534,16.1,21.3,30.458,21.3Z" fill="#cae2ff"/>
          <path id="Path_2" data-name="Path 2" d="M459.2,353.917c-9.119-10.338-22.959-14.042-35.217-19.811-3.387-1.594-6.794-3.456-9.159-6.454-3.293-4.174-4.083-10.011-3.4-15.378,2.849-22.46,27.341-36.3,31.294-58.58,2.99-16.851-7.326-33.962-21.3-42.881s-30.863-11.162-47.214-11.859-32.928-.079-48.843-4.066c-4.2-1.052-8.543-2.565-11.395-5.956-3.234-3.845-3.913-9.4-3.4-14.5,1.386-13.737,32.688-60.966,17.011-76.551a29.219,29.219,0,0,0-19.646-8.726c9.9,2.693,17.148,8.355,11.875,19.956-12.177,26.791-125.184,115.929-45.787,124.7s-52.119,79.4,7.794,84.267c45.7,3.716-48.053,57.256-94.935,81.483H434.353c25.375,0,40.737-25.985,25.823-44.488Q459.705,354.485,459.2,353.917Z" fill="#a6cef4" opacity="0.41" style="mix-blend-mode: multiply;isolation: isolate"/>
          <path id="Path_3" data-name="Path 3" d="M99.037,163.28s82.29,28.326,118.882-37.889S29.971,138.678,99.037,163.28Z" fill="#cae2ff"/>
          <path id="Path_4" data-name="Path 4" d="M200.143,99.65c5.83,3.871,6.987,10.853.892,21.882-25.888,46.846-74.643,46.37-100.955,42.083,9.6,2.987,83.656,23.632,117.839-38.224C228.029,107.1,218.2,99.929,200.143,99.65Z" fill="#a6cef4" opacity="0.41" style="mix-blend-mode: multiply;isolation: isolate"/>
        </g>
        <g id="Group_8" data-name="Group 8">
          <g id="Group_7" data-name="Group 7">
            <g id="Group_2" data-name="Group 2">
              <path id="Path_5" data-name="Path 5" d="M71.954,369.052s-3-2.8-.987-13.447,7.13-20.862,4.621-32.407S53.406,282.542,53.34,280.606s-6.069,33.866,4.1,47.969,11.4,19,10.946,26.413.105,13.389,1.221,15.114Z" fill="#4286e8"/>
              <path id="Path_6" data-name="Path 6" d="M70.093,347.648c-1.183,4.747-1.9,16.651-.007,19.5.176.266.43.115.746-.377-.576-1.968-.954-5.416.135-11.166,2.016-10.643,7.13-20.862,4.621-32.407S53.406,282.542,53.34,280.606c0,0,2.965,24.254,12.948,40.947C73.436,333.505,71.275,342.9,70.093,347.648Z" fill="#1a2df3"/>
            </g>
            <g id="Group_3" data-name="Group 3">
              <path id="Path_7" data-name="Path 7" d="M75.542,368.313s-5.78-14.429,4.015-26.923,25.46-28.536,25.772-34.891c0,0,4.025,30.173-8.724,38.714s-21.69,9.9-19.479,23.046Z" fill="#4286e8"/>
              <path id="Path_8" data-name="Path 8" d="M89.3,339.147c-14.215,10.348-15.378,22.267-13.172,27.795a1.41,1.41,0,0,0,.925.833c-1.906-12.685,6.962-14.128,19.55-22.562,12.749-8.541,8.724-38.714,8.724-38.714S103.519,328.8,89.3,339.147Z" fill="#1a2df3"/>
            </g>
            <g id="Group_5" data-name="Group 5">
              <path id="Path_9" data-name="Path 9" d="M66.037,368.637a50.44,50.44,0,0,0,.867-15.89c-.986-8.248-9.6-12.889-17.655-21.6-4.142-4.483-5.367-28.189-2.8-30.392,0,0-14.215,17.227-12.022,29.84s25.381,20.81,27.528,26.9a33.847,33.847,0,0,1,1.968,11.212Z" fill="#4286e8"/>
              <g id="Group_4" data-name="Group 4">
                <path id="Path_10" data-name="Path 10" d="M41.646,307.534c-4.7,12.723.117,28.132,15.724,37.7,11.49,7.046,7.831,21.7,7.831,21.7l1.877-5.781a45.883,45.883,0,0,0-.174-8.406c-.986-8.248-9.6-12.889-17.655-21.6-3.995-4.324-5.275-26.523-3.057-30.071A75.915,75.915,0,0,0,41.646,307.534Z" fill="#1a2df3"/>
                <path id="Path_11" data-name="Path 11" d="M46.192,301.075c.161-.2.258-.321.258-.321A1.453,1.453,0,0,0,46.192,301.075Z" fill="#49b4d6"/>
              </g>
            </g>
            <g id="Group_6" data-name="Group 6">
              <path id="Path_12" data-name="Path 12" d="M78.516,367.683s3.332-12.362,11.572-14.026,17.7-13.84,18.213-16.228C108.3,337.429,106.912,360.392,78.516,367.683Z" fill="#4286e8"/>
              <path id="Path_13" data-name="Path 13" d="M89.617,357.744c-5.049,2.524-7.148,5.92-7.894,9C107,358.616,108.3,337.429,108.3,337.429a9.05,9.05,0,0,1-1.284,2.415C104.538,344.188,98.535,353.285,89.617,357.744Z" fill="#1a2df3"/>
            </g>
          </g>
          <path id="Path_14" data-name="Path 14" d="M96.347,363.131h-43.1l5.118,32.189a5.027,5.027,0,0,0,4.965,4.238h22.93a5.027,5.027,0,0,0,4.965-4.238Z" fill="#f95858"/>
          <path id="Path_15" data-name="Path 15" d="M95.5,368.457l.847-5.326h-43.1l.847,5.326Z" fill="#e53838"/>
          <path id="Path_16" data-name="Path 16" d="M85.906,363.131,80.788,395.32a5.027,5.027,0,0,1-4.965,4.238H86.264a5.027,5.027,0,0,0,4.965-4.238l5.118-32.189Z" fill="#e53838"/>
        </g>
        <g id="Group_26" data-name="Group 26">
          <g id="Group_9" data-name="Group 9">
            <rect id="Rectangle_2" data-name="Rectangle 2" width="8.97" height="73.365" transform="translate(257.047 326.258)" fill="#fff"/>
            <rect id="Rectangle_3" data-name="Rectangle 3" width="3.524" height="73.365" transform="translate(262.493 326.258)" fill="#e8f2fc"/>
            <path id="Path_17" data-name="Path 17" d="M287.3,393.615H238.265a3,3,0,0,0-3,3h0a3,3,0,0,0,3,3H287.3a3,3,0,0,0,3-3h0A3,3,0,0,0,287.3,393.615Z" fill="#fff"/>
            <path id="Path_18" data-name="Path 18" d="M287.3,393.615H238.265a2.993,2.993,0,0,0-2.565,1.461h42.466a2.988,2.988,0,0,1,2.565,4.547H287.3a3,3,0,0,0,0-6.008Z" fill="#e8f2fc"/>
            <rect id="Rectangle_4" data-name="Rectangle 4" width="8.97" height="6.532" transform="translate(257.047 326.258)" fill="#e8f2fc"/>
            <path id="Path_19" data-name="Path 19" d="M312.489,223.972a10.213,10.213,0,0,0-4.152-.869h-50.5a10.283,10.283,0,0,0-10.1,8.352l-15.825,82.73a10.326,10.326,0,0,0,0,3.891c.005.028.014.055.02.083H217.894a4.184,4.184,0,0,0,0,8.367h45.379V326.4h29.248a10.283,10.283,0,0,0,10.1-8.352l15.816-82.73A10.3,10.3,0,0,0,312.489,223.972Z" fill="#f93"/>
            <path id="Path_20" data-name="Path 20" d="M318.434,235.318,302.623,318.05a10.276,10.276,0,0,1-10.1,8.346H263.272v.132H217.9a4.184,4.184,0,0,1,0-8.368h14.038a.259.259,0,0,1-.022-.088c.121.011.265.011.386.011h50.493a14.147,14.147,0,0,0,13.9-11.484l15.8-82.622A10.293,10.293,0,0,1,318.434,235.318Z" fill="#e8f2fc"/>
            <path id="Path_21" data-name="Path 21" d="M296.788,306.1l-.1.495a14.147,14.147,0,0,1-13.9,11.484H232.3c-.121,0-.265,0-.386-.011a.259.259,0,0,0,.022.088H217.9a4.174,4.174,0,0,0-4.129,3.545V310.4c0-.022-.011-.055-.011-.088a3.784,3.784,0,0,1,3.821-4.206Z" fill="#fff"/>
            <path id="Path_22" data-name="Path 22" d="M312.489,223.972l-15.8,82.623a14.16,14.16,0,0,1-13.895,11.49H232.3c-.125,0-.261,0-.386-.009a10.326,10.326,0,0,1,0-3.891l15.825-82.73a10.283,10.283,0,0,1,10.1-8.352h50.5A10.213,10.213,0,0,1,312.489,223.972Z" fill="#fff"/>
          </g>
          <g id="Group_13" data-name="Group 13">
            <path id="Path_23" data-name="Path 23" d="M192.815,204.138H106.849a3.279,3.279,0,0,0-3.245,3.752l7.361,50.544a3.28,3.28,0,0,0,3.245,2.807h85.966a3.279,3.279,0,0,0,3.246-3.752l-7.362-50.545A3.278,3.278,0,0,0,192.815,204.138Z" fill="#1d54b5"/>
            <path id="Path_24" data-name="Path 24" d="M180.79,204.138H106.849a3.279,3.279,0,0,0-3.245,3.752l3.253,22.34a65.99,65.99,0,0,0,26.447,5.437C157.956,235.667,172.483,222.571,180.79,204.138Z" fill="#3070ce"/>
            <g id="Group_10" data-name="Group 10">
              <path id="Path_25" data-name="Path 25" d="M153.816,242.717H137.538a2.3,2.3,0,0,0-2.282,2.636l4.932,33.851a2.629,2.629,0,0,0,.019.32l.223,1.335a2.3,2.3,0,0,0,2.276,1.969h16.065Z" fill="#4286e8"/>
              <path id="Path_26" data-name="Path 26" d="M177.584,280.461a2.333,2.333,0,0,0-2.333-2.3H162.936a3.63,3.63,0,0,1-3.6-3.138l-3.609-26.369h2.139a2.3,2.3,0,0,0,2.28-2.636l-.219-1.335a2.3,2.3,0,0,0-2.28-1.972h-4.271a3.22,3.22,0,0,0-3.191,3.648l4.5,33.545a3.367,3.367,0,0,0,3.337,2.919l17.223,0a2.334,2.334,0,0,0,2.334-2.369Z" fill="#1d54b5"/>
            </g>
            <g id="Group_11" data-name="Group 11">
              <path id="Path_27" data-name="Path 27" d="M168.735,253.943a1.542,1.542,0,1,1-1.542-1.541A1.541,1.541,0,0,1,168.735,253.943Z" fill="#4286e8"/>
              <path id="Path_28" data-name="Path 28" d="M176.65,253.943a1.541,1.541,0,1,1-1.541-1.541A1.541,1.541,0,0,1,176.65,253.943Z" fill="#4286e8"/>
              <circle id="Ellipse_1" data-name="Ellipse 1" cx="1.541" cy="1.541" r="1.541" transform="translate(180.503 252.402)" fill="#4286e8"/>
            </g>
            <path id="Path_29" data-name="Path 29" d="M191.147,227.58l4.494,30.854a3.279,3.279,0,0,0,3.245,2.807h1.29a3.279,3.279,0,0,0,3.246-3.752l-7.362-50.545a3.278,3.278,0,0,0-3.245-2.806h-1.29a3.278,3.278,0,0,0-3.245,3.752l2.867,19.69" fill="#4286e8"/>
            <g id="Group_12" data-name="Group 12">
              <path id="Path_30" data-name="Path 30" d="M158.622,209.656H128.6a1.191,1.191,0,0,0-1.176,1.381l.2,1.243a1.192,1.192,0,0,0,1.176,1h30.021A1.191,1.191,0,0,0,160,211.9l-.2-1.243A1.191,1.191,0,0,0,158.622,209.656Z" fill="#4286e8"/>
            </g>
          </g>
          <g id="Group_22" data-name="Group 22">
            <path id="Path_31" data-name="Path 31" d="M280.5,225.06c-.953-7.317-11.669-3.9-7.646-10.714,3.72-6.306-.61-9.1-5.728-10.079-6.526-1.255-2.821-3.825-6-9.914-4.035-7.737-10.259-5.439-10.259-5.439s-7.8-4.242-15.752,2.465c-8.376,7.067-6.55,13.319-2.066,21.9,2.266,4.34-.516,8.205-2.5,16.182-2.379,9.57,9.437,28.834,34.72,15.822C275.048,240.255,281,228.942,280.5,225.06Z"/>
            <path id="Path_32" data-name="Path 32" d="M245.574,227.06s-3.86.413-7.788,4.341c-2.64,2.641-15.566,28.369-15.566,28.369l-11.93-36.535-8.735.672s9.835,58.76,17.487,58.869c7.236.1,30.219-37.937,30.219-37.937Z" fill="#1a2df3"/>
            <path id="Path_33" data-name="Path 33" d="M270.245,242.462l7.649,28.634-45.225,3.695.207,8.166s52.135.233,61.956.13c6.541-.069-5.774-51.858-13.63-57.785-6.213-4.686-23.388-3.437-23.388-3.437l-12.24,5.195s-14.2,14.058-5.72,27.29c6.677,10.423-1.834,30.671-1.834,30.671l28.906,1.72,25.816.244Z" fill="#1a2df3"/>
            <path id="Path_34" data-name="Path 34" d="M241.387,274.079l1.62-.3c1.55-6.77,1.827-16.021-1.706-20.467-7-8.81.207-21.6,4.255-26.231h-.007c-.648.654-13.963,14.35-5.695,27.267C243.8,260.52,242.839,268.552,241.387,274.079Z" fill="#1324de"/>
            <path id="Path_35" data-name="Path 35" d="M232.8,276.677c-4.783.175-9.9,1.886-12.293,4.7a.966.966,0,0,0,.741,1.587h11.626Z" fill="#ffb19e"/>
            <g id="Group_16" data-name="Group 16">
              <path id="Path_36" data-name="Path 36" d="M257.822,212.251v9.656l-8.654,9.909-.055-.11-2.357-5.043v-5.417a10.985,10.985,0,0,1-9.149-8.555l-1.223-6.683a20.976,20.976,0,0,0,11.583-5.9,24.731,24.731,0,0,0,3.755,5.021c1.608,1.6,3.832,1.993,4.679,2.863A5.315,5.315,0,0,1,257.822,212.251Z" fill="#ffb19e"/>
              <path id="Path_37" data-name="Path 37" d="M255.456,203.886a26.749,26.749,0,0,0-1.861-7.544c-1.77-4-4.262-8.688-9.433-8.7,0,0,12.556-1.952,14.659,15.529Z" fill="#ff4751"/>
              <g id="Group_14" data-name="Group 14">
                <path id="Path_38" data-name="Path 38" d="M262.97,206.758a5.684,5.684,0,1,0-4.977,6.7A5.908,5.908,0,0,0,262.97,206.758Z" fill="#ff4751"/>
                <path id="Path_39" data-name="Path 39" d="M259.053,212.861A5.688,5.688,0,0,1,253,207.585a5.753,5.753,0,0,1,4.149-6.332c-.154,0-.309.008-.466.025a6.142,6.142,0,0,0,1.314,12.176,5.3,5.3,0,0,0,2.573-1A5.071,5.071,0,0,1,259.053,212.861Z" fill="#cc3241"/>
                <path id="Path_40" data-name="Path 40" d="M260.8,206.915a2.755,2.755,0,1,0-2.413,3.245A2.864,2.864,0,0,0,260.8,206.915Z" fill="#cc3241"/>
              </g>
              <path id="Path_41" data-name="Path 41" d="M254.937,217.15a34.8,34.8,0,0,1-4.052,4.427,2.869,2.869,0,0,0-1.013,2.224l-.759,7.9-2.357-5.043v-5.395l.055-.055S252.261,220.388,254.937,217.15Z" fill="#f48f7a"/>
              <g id="Group_15" data-name="Group 15">
                <path id="Path_42" data-name="Path 42" d="M251.255,216.736l-.1-.55c3.157-.54,5.465-4.786,5.488-4.828l.493.264C257.042,211.806,254.678,216.151,251.255,216.736Z" fill="#ff4751"/>
                <path id="Path_43" data-name="Path 43" d="M251.843,216.424c-.075-.518-.858-.8-1.75-.636s-1.555.723-1.48,1.24.858.8,1.75.636S251.918,216.942,251.843,216.424Z" fill="#ff4751"/>
              </g>
            </g>
            <path id="Path_44" data-name="Path 44" d="M209.578,223.459s1.233-10.111.123-10.481-2.22,3.946-2.22,3.946-4.685-9.124-7.891-8.138,2.689,15.018,2.689,15.018Z" fill="#ffb19e"/>
            <path id="Path_45" data-name="Path 45" d="M241.37,274.024l35.613-2.978a2.054,2.054,0,0,0,1.846-2.443c-1.316-6.657-5.118-25.745-5.345-25.176-.276.689,3.583,22.466-.965,24.671C269.409,269.606,241.37,274.024,241.37,274.024Z" fill="#1324de"/>
            <g id="Group_18" data-name="Group 18">
              <g id="Group_17" data-name="Group 17">
                <path id="Path_46" data-name="Path 46" d="M265.589,379.369a1.157,1.157,0,0,0-.678.461c-2.267,3.153-4.277,3.9-8.253,4.433a2.355,2.355,0,0,0-.746.249c.305-.458,1.63-2.628.717-4.582a22.215,22.215,0,0,0-2.268-3.8l5.809-3.458S263.732,376.777,265.589,379.369Z" fill="#ffb19e"/>
                <path id="Path_47" data-name="Path 47" d="M269.889,386.755c-1.027.984-17.6,10.044-21.54,12.317-.481.278-1.456.786-1.634.26-.28-.822,6.888-14.653,9.943-15.067,3.973-.538,5.986-1.28,8.249-4.436a1.157,1.157,0,0,1,1.908.022C268.4,382.257,270.715,385.965,269.889,386.755Z" fill="#1a2df3"/>
              </g>
              <path id="Path_48" data-name="Path 48" d="M238.248,284.976s-40.223,18.645-41.289,31.576c-.949,11.5,58.331,64.112,58.331,64.112l9.373-3.859L232.22,324.51s34.369-16.941,42.767-37.338Z" fill="#010f1d"/>
              <path id="Path_49" data-name="Path 49" d="M212.613,313.161c-2.729,5.25-4.733,12.582-6.131,19.227,4.554,5.406,10.3,11.493,16.235,17.479-4.385-17.326-8.278-34.7-6.933-37.19,2.565-4.746,19.61-17.364,31.655-23.639C247.439,289.038,218.944,300.984,212.613,313.161Z" fill="#212226"/>
            </g>
            <g id="Group_21" data-name="Group 21">
              <g id="Group_19" data-name="Group 19">
                <path id="Path_50" data-name="Path 50" d="M241.891,390.167a1.158,1.158,0,0,0-.817.071c-3.518,1.644-5.636,1.312-9.366-.164a2.357,2.357,0,0,0-.773-.147c.49-.25,2.706-1.5,2.864-3.648a22.223,22.223,0,0,0-.12-4.427l6.758-.18S241.537,387,241.891,390.167Z" fill="#ffb19e"/>
                <path id="Path_51" data-name="Path 51" d="M242.035,399.2c-1.377.357-20.939.14-25.486.2a.879.879,0,0,1-.879-1.038c.158-.853,13.169-9.42,16.036-8.288,3.73,1.471,5.849,1.806,9.366.158a1.156,1.156,0,0,1,1.653.951C242.937,394.063,243.142,398.917,242.035,399.2Z" fill="#1a2df3"/>
              </g>
              <g id="Group_20" data-name="Group 20">
                <path id="Path_52" data-name="Path 52" d="M292.6,286.9s3.37,22.778-17.047,28.544a276.986,276.986,0,0,1-33.353,6.864l1.235,64.651H232.7s-19.708-69.131-16.92-74.278c3.166-5.845,28.245-23.6,38.958-26.8Z" fill="#010f1d"/>
                <path id="Path_53" data-name="Path 53" d="M242.2,322.306a276.986,276.986,0,0,0,33.353-6.864C295.972,309.676,292.6,286.9,292.6,286.9l-12.64-.34c-3.8,8.166-16.148,28.385-46.1,30.566l6.781,69.833h2.791Z" fill="#0e367c" opacity="0.13" style="mix-blend-mode: multiply;isolation: isolate"/>
              </g>
            </g>
          </g>
          <g id="Group_25" data-name="Group 25">
            <g id="Group_23" data-name="Group 23">
              <path id="Path_54" data-name="Path 54" d="M109.33,399.613l-4.5-.034,18.689-112.325,4.523-.035Z" fill="#fff"/>
              <path id="Path_55" data-name="Path 55" d="M294.465,399.577l4.775.037L276.068,285.971l-4.745.036Z" fill="#fff"/>
            </g>
            <g id="Group_24" data-name="Group 24">
              <path id="Path_56" data-name="Path 56" d="M126.814,293.446l1.232-6.227-4.523.035-1.225,6.193Z" fill="#e4edf7"/>
              <path id="Path_57" data-name="Path 57" d="M277.588,293.446l-1.52-7.475-4.745.036,1.512,7.439Z" fill="#e4edf7"/>
            </g>
            <path id="Path_58" data-name="Path 58" d="M303.331,282.9H100.656a2.283,2.283,0,0,0-2.283,2.283h0a2.283,2.283,0,0,0,2.283,2.283H303.331a2.283,2.283,0,0,0,2.283-2.283h0A2.283,2.283,0,0,0,303.331,282.9Z" fill="#fff"/>
          </g>
        </g>
        <g id="Group_41" data-name="Group 41">
          <g id="Group_31" data-name="Group 31">
            <path id="Path_59" data-name="Path 59" d="M223.25,183.329,217.909,152.4a2.912,2.912,0,0,0-2.882-2.492l-49.687.543a2.913,2.913,0,0,0-2.882,3.332l4.686,27.135,2.37,15.363a.9.9,0,0,0,1.639.361l6.324-9.515,42.891-.469A2.913,2.913,0,0,0,223.25,183.329Z" fill="url(#linear-gradient)"/>
            <g id="Group_30" data-name="Group 30">
              <g id="Group_27" data-name="Group 27">
                <path id="Path_60" data-name="Path 60" d="M205.581,159.507H176.786a.8.8,0,0,0-.794.933l.135.84a.806.806,0,0,0,.795.676h28.795a.805.805,0,0,0,.795-.933l-.136-.84A.8.8,0,0,0,205.581,159.507Z" fill="#fff"/>
              </g>
              <g id="Group_28" data-name="Group 28">
                <path id="Path_61" data-name="Path 61" d="M206.549,167.15h-28.8a.805.805,0,0,0-.794.934l.136.839a.805.805,0,0,0,.794.677h28.8a.8.8,0,0,0,.794-.934l-.136-.84A.8.8,0,0,0,206.549,167.15Z" fill="#fff"/>
              </g>
              <g id="Group_29" data-name="Group 29">
                <path id="Path_62" data-name="Path 62" d="M199.69,175.448l-13.325.023a.805.805,0,0,0-.795.933l.136.84a.8.8,0,0,0,.794.676l13.326-.023a.8.8,0,0,0,.794-.933l-.136-.84A.8.8,0,0,0,199.69,175.448Z" fill="#fff"/>
              </g>
            </g>
          </g>
          <g id="Group_36" data-name="Group 36">
            <path id="Path_63" data-name="Path 63" d="M425.089,134.323l6.612-29.089a1.734,1.734,0,0,0-1.773-2.345l-46.942.511a4.5,4.5,0,0,0-3.965,3.134l-5.8,25.524-3.551,14.451c-.187.764.721.984,1.406.34L380.6,137.9l40.521-.441A4.5,4.5,0,0,0,425.089,134.323Z" fill="url(#linear-gradient)"/>
            <g id="Group_35" data-name="Group 35">
              <g id="Group_32" data-name="Group 32">
                <path id="Path_64" data-name="Path 64" d="M416.708,112.335h-25.77a1.182,1.182,0,0,0-1.046.835l-.178.752a.454.454,0,0,0,.469.605h25.77a1.179,1.179,0,0,0,1.045-.836l.179-.751A.454.454,0,0,0,416.708,112.335Z" fill="#fff"/>
              </g>
              <g id="Group_33" data-name="Group 33">
                <path id="Path_65" data-name="Path 65" d="M414.838,119.175H389.067a1.183,1.183,0,0,0-1.045.836l-.179.751a.455.455,0,0,0,.469.606h25.771a1.182,1.182,0,0,0,1.045-.836l.179-.752A.455.455,0,0,0,414.838,119.175Z" fill="#fff"/>
              </g>
              <g id="Group_34" data-name="Group 34">
                <path id="Path_66" data-name="Path 66" d="M405.729,126.6l-11.934.021a1.182,1.182,0,0,0-1.045.835l-.179.752a.454.454,0,0,0,.469.6l11.934-.021a1.18,1.18,0,0,0,1.045-.835l.179-.752A.454.454,0,0,0,405.729,126.6Z" fill="#fff"/>
              </g>
            </g>
          </g>
          <g id="Group_40" data-name="Group 40">
            <path id="Path_67" data-name="Path 67" d="M157.688,183.1a.9.9,0,0,0,1.462-.845l-6.371-36.728a2.472,2.472,0,0,0-2.446-2.115l-42.166.461a2.472,2.472,0,0,0-2.446,2.828l4.532,26.244a2.472,2.472,0,0,0,2.446,2.116l32.468-.355a6.511,6.511,0,0,1,4.236,1.505Z" fill="url(#linear-gradient)"/>
            <g id="Group_39" data-name="Group 39">
              <g id="Group_37" data-name="Group 37">
                <path id="Path_68" data-name="Path 68" d="M144.558,154.44H115.763a.806.806,0,0,0-.795.934l.136.84a.8.8,0,0,0,.8.676h28.795a.8.8,0,0,0,.794-.933l-.136-.84A.8.8,0,0,0,144.558,154.44Z" fill="#fff"/>
              </g>
              <g id="Group_38" data-name="Group 38">
                <path id="Path_69" data-name="Path 69" d="M145.526,162.084h-28.8a.8.8,0,0,0-.794.933l.136.84a.8.8,0,0,0,.794.676h28.795a.8.8,0,0,0,.795-.933l-.136-.84A.805.805,0,0,0,145.526,162.084Z" fill="#fff"/>
              </g>
            </g>
          </g>
        </g>
        <g id="Group_56" data-name="Group 56">
          <g id="Group_54" data-name="Group 54">
            <g id="Group_44" data-name="Group 44">
              <path id="Path_70" data-name="Path 70" d="M379.982,244.45l-.155,5.781-3.47,134.244h-13.87L350.2,269.45a.048.048,0,0,0-.011.033l-15.618,38.781,10.658,76.209-5.126.044-8.478.078s-25.361-76.053-24.85-80.98,19.557-58.666,19.557-58.666Z" fill="#010f1d"/>
              <path id="Path_71" data-name="Path 71" d="M381.328,161.36l-26.056-3.582-.61-.089-12.461.055-.111.022-14.882,3.724v83.695h54.121Z" fill="#f95858"/>
              <path id="Path_72" data-name="Path 72" d="M425.917,177.621s1.894-11.832,3.269-11.889,1.226,5.182,1.226,5.182,8.265-8.791,11.568-6.633-7.924,16.1-7.924,16.1Z" fill="#ffb19e"/>
              <path id="Path_73" data-name="Path 73" d="M342.222,157.811l1.411,92.42H324.146l-1.376-25.295-25.855-.42a3.962,3.962,0,0,1-3.935-5.055l12.88-44.784a15.22,15.22,0,0,1,10.952-10.585l25.277-6.325Z" fill="#1a2df3"/>
              <path id="Path_74" data-name="Path 74" d="M434.9,180.76l-25.068,51.5a4.276,4.276,0,0,1-7.4.144l-19.618-32.512-.977,50.343H361.019L355.193,157.8l.078-.022,26.476,3.64a15.346,15.346,0,0,1,11.506,8.477l13.393,27.619a1.05,1.05,0,0,0,1.742.21l17.036-20.351Z" fill="#1a2df3"/>
              <path id="Path_75" data-name="Path 75" d="M322.647,225.182h25.4l.245-13.008-25.4-.368Z" fill="#4286e8"/>
              <path id="Path_76" data-name="Path 76" d="M348.21,221.589c7.165-.262,14.829-2.825,18.416-7.039a1.447,1.447,0,0,0-1.11-2.377H348.1Z" fill="#ffb19e"/>
              <path id="Path_77" data-name="Path 77" d="M338.3,225.714l.024-.417-15.542-.114,1.363,25.049,4.637-20.754Z" fill="#13448c" opacity="0.41"/>
              <path id="Path_78" data-name="Path 78" d="M379.827,250.231l-3.47,134.244h-.976l-9.313-134.244Z" fill="#212226" opacity="0.999"/>
              <path id="Path_79" data-name="Path 79" d="M348.265,212.081s-34.461,2.5-34.239,1.841l5.982-20.614.088.311.588,14.38C320.762,209.952,346.468,211.571,348.265,212.081Z" fill="#13448c" opacity="0.41"/>
              <path id="Path_80" data-name="Path 80" d="M409.831,232.256l25.068-51.5-.116-.039c-2.66-.012-25.985,48.756-28.439,49.983-2.794,1.4-23.532-30.816-23.532-30.816L402.43,232.4A4.276,4.276,0,0,0,409.831,232.256Z" fill="#13448c" opacity="0.41"/>
              <g id="Group_42" data-name="Group 42">
                <path id="Path_81" data-name="Path 81" d="M333.2,384.45c-2.991,6.126-17.207,9.222-17.207,9.222a3.911,3.911,0,0,0,.6,4.094c1.624,2.287,16.583.886,18.458.47a6.523,6.523,0,0,0,3.166-1.938A10.455,10.455,0,0,0,340.176,398c.7.338,4.523-.427,4.523-.427.9-2.437,0-11.741-.256-13.225Z" fill="#1a2df3"/>
              </g>
              <g id="Group_43" data-name="Group 43">
                <path id="Path_82" data-name="Path 82" d="M375.057,384.45c2.991,6.126,17.207,9.222,17.207,9.222a3.91,3.91,0,0,1-.6,4.094c-1.623,2.287-16.582.886-18.457.47a6.523,6.523,0,0,1-3.166-1.938A10.455,10.455,0,0,1,368.081,398c-.7.338-4.523-.427-4.523-.427-.9-2.437,0-11.741.256-13.225Z" fill="#1a2df3"/>
              </g>
              <path id="Path_83" data-name="Path 83" d="M334.571,308.264l10.658,76.209-5.126.044c-3.163-16.411-14.221-71.281-13.81-74.721.477-4.106,23.2-39.148,23.9-40.313Z" fill="#0e367c" opacity="0.32" style="mix-blend-mode: multiply;isolation: isolate"/>
            </g>
            <g id="Group_53" data-name="Group 53">
              <g id="Group_46" data-name="Group 46">
                <path id="Path_84" data-name="Path 84" d="M355.216,157.859c-1.889,1.508-6.454,4.722-6.454,4.722s-4.645-3.182-6.565-4.71l-.015-11.03h13.034Z" fill="#ffb19e" fill-rule="evenodd"/>
                <path id="Path_85" data-name="Path 85" d="M355.221,146.841v4.614a10.276,10.276,0,0,1-13.034.053v-4.667Z" fill="#ffb19e" fill-rule="evenodd"/>
                <path id="Path_86" data-name="Path 86" d="M334.233,139.711h29.286l.452-8.153c6.474-2.739,1.618-18.177,1.618-18.177.374,3.735-9.711,3.859-13.695,3.237a10.836,10.836,0,0,0-6.723,1s-12.7-2.739-11.952,15.065A32.8,32.8,0,0,0,334.233,139.711Z" fill-rule="evenodd"/>
                <g id="Group_45" data-name="Group 45">
                  <path id="Path_87" data-name="Path 87" d="M360.422,131.545v7.348a11.406,11.406,0,0,1-3.576,8.3c-.373.331-.747.69-1.134,1.049a10.271,10.271,0,0,1-14.074,0l-1.12-1.049a11.336,11.336,0,0,1-3.59-8.276v-5.608a44.2,44.2,0,0,0,8.061-7.838S350.151,130.425,360.422,131.545Z" fill="#ffb19e" fill-rule="evenodd"/>
                  <path id="Path_88" data-name="Path 88" d="M355.221,148.669v2.786a10.276,10.276,0,0,1-13.034.053v-2.8A10.26,10.26,0,0,0,355.221,148.669Z" fill="#f48f7a" fill-rule="evenodd"/>
                  <path id="Path_89" data-name="Path 89" d="M339.845,140.573a3.729,3.729,0,0,0-5.207-5.208,2.253,2.253,0,0,0-.709.709,3.729,3.729,0,0,0,5.208,5.208A2.25,2.25,0,0,0,339.845,140.573Z" fill="#ffb19e" fill-rule="evenodd"/>
                  <path id="Path_90" data-name="Path 90" d="M363.24,140.574a3.718,3.718,0,0,0-4.948-5.359,2.829,2.829,0,0,0-1.12,1.121,3.718,3.718,0,0,0,5.359,4.947A2.233,2.233,0,0,0,363.24,140.574Z" fill="#ffb19e" fill-rule="evenodd"/>
                </g>
              </g>
              <g id="Group_52" data-name="Group 52">
                <path id="Path_91" data-name="Path 91" d="M363.129,132.817h-1.114v-3.856c0-6.4-5.839-11.612-13.018-11.612h-.549c-7.179,0-13.019,5.209-13.019,11.612v3.856h-1.113v-3.856c0-6.987,6.339-12.672,14.132-12.672H349c7.792,0,14.132,5.685,14.132,12.672Z" fill="#a31919"/>
                <g id="Group_51" data-name="Group 51">
                  <g id="Group_49" data-name="Group 49">
                    <g id="Group_47" data-name="Group 47">
                      <path id="Path_92" data-name="Path 92" d="M362.2,130.761h0a3.15,3.15,0,0,0-3.14,3.141v5.6a3.149,3.149,0,0,0,3.14,3.14h0a3.149,3.149,0,0,0,3.14-3.14v-5.6A3.15,3.15,0,0,0,362.2,130.761Z" fill="#f95858"/>
                      <path id="Path_93" data-name="Path 93" d="M362.2,130.761a3.091,3.091,0,0,0-.941.161,3.142,3.142,0,0,1,2.2,2.98v5.6a3.141,3.141,0,0,1-2.2,2.979,3.061,3.061,0,0,0,.941.161,3.149,3.149,0,0,0,3.14-3.14v-5.6A3.15,3.15,0,0,0,362.2,130.761Z" fill="#cc3241"/>
                    </g>
                    <g id="Group_48" data-name="Group 48">
                      <path id="Path_94" data-name="Path 94" d="M335.241,130.761h0a3.15,3.15,0,0,0-3.14,3.141v5.6a3.149,3.149,0,0,0,3.14,3.14h0a3.149,3.149,0,0,0,3.14-3.14v-5.6A3.15,3.15,0,0,0,335.241,130.761Z" fill="#f95858"/>
                      <path id="Path_95" data-name="Path 95" d="M335.241,130.761a3.091,3.091,0,0,0-.941.161,3.142,3.142,0,0,1,2.2,2.98v5.6a3.141,3.141,0,0,1-2.2,2.979,3.061,3.061,0,0,0,.941.161,3.149,3.149,0,0,0,3.14-3.14v-5.6A3.15,3.15,0,0,0,335.241,130.761Z" fill="#cc3241"/>
                    </g>
                  </g>
                  <g id="Group_50" data-name="Group 50">
                    <path id="Path_96" data-name="Path 96" d="M353.721,146.146l-.04-.624c3.581-.227,6.656-4.682,6.687-4.727l.517.353C360.753,141.342,357.6,145.9,353.721,146.146Z" fill="#ff4751"/>
                    <path id="Path_97" data-name="Path 97" d="M354.414,145.868c-.022-.586-.861-1-1.875-.916s-1.818.62-1.8,1.205.861,1,1.875.916S354.435,146.453,354.414,145.868Z" fill="#ff4751"/>
                  </g>
                </g>
              </g>
            </g>
          </g>
          <g id="Group_55" data-name="Group 55">
            <path id="Path_98" data-name="Path 98" d="M369.284,173.984H323.8a4.424,4.424,0,0,0-4.307,4.74L320.681,208a4.482,4.482,0,0,0,4.417,4.271h42.884A4.482,4.482,0,0,0,372.4,208l1.193-29.279A4.423,4.423,0,0,0,369.284,173.984Z"/>
            <path id="Path_99" data-name="Path 99" d="M369.284,173.984H323.8a4.192,4.192,0,0,0-3.136,1.416,4.1,4.1,0,0,1,1.173-.188H367.32a4.422,4.422,0,0,1,4.307,4.739l-1.192,29.279a4.431,4.431,0,0,1-1.214,2.838A4.486,4.486,0,0,0,372.4,208l1.193-29.279A4.423,4.423,0,0,0,369.284,173.984Z" fill="#3d4045"/>
            <path id="Path_100" data-name="Path 100" d="M351.364,193.887a5.155,5.155,0,1,0-5.154,5.155A5.155,5.155,0,0,0,351.364,193.887Z" fill="#4286e8"/>
          </g>
        </g>
      </g>
    </g>
  </g>
</svg>
