<svg id="_415-ai" data-name="415-ai" xmlns="http://www.w3.org/2000/svg" xmlns:xlink="http://www.w3.org/1999/xlink" width="593.187" height="508.073" viewBox="0 0 593.187 508.073">
  <defs>
    <linearGradient id="linear-gradient" x1="0.5" x2="0.5" y2="1" gradientUnits="objectBoundingBox">
      <stop offset="0" stop-color="#5261fa"/>
      <stop offset="0.992" stop-color="#1a2df3"/>
      <stop offset="1" stop-color="#003394"/>
    </linearGradient>
    <clipPath id="clip-path">
      <path id="Path_28830" data-name="Path 28830" d="M647.828,613.131H450.6a21.708,21.708,0,0,1-21.707-21.707V164.607A21.708,21.708,0,0,1,450.6,142.9H647.828a21.708,21.708,0,0,1,21.707,21.707V591.424A21.708,21.708,0,0,1,647.828,613.131Z" transform="translate(-428.89 -142.9)" fill="#1a2df3"/>
    </clipPath>
    <linearGradient id="linear-gradient-2" y1="1" x2="0.5" gradientUnits="objectBoundingBox">
      <stop offset="0" stop-color="#4a59f5"/>
      <stop offset="1" stop-color="#a0a7f0"/>
    </linearGradient>
    <clipPath id="clip-path-2">
      <path id="Path_28831" data-name="Path 28831" d="M639.836,370.238a7.639,7.639,0,1,1-10.8,0A7.637,7.637,0,0,1,639.836,370.238Z" transform="translate(-626.795 -368.003)"/>
    </clipPath>
    <clipPath id="clip-path-3">
      <path id="Path_28832" data-name="Path 28832" d="M691.464,371.238a7.641,7.641,0,1,1-10.806,0A7.646,7.646,0,0,1,691.464,371.238Z" transform="translate(-678.423 -369.003)"/>
    </clipPath>
  </defs>
  <g id="background" transform="translate(41.894 484.509)">
    <path id="_Path_" data-name="&lt;Path&gt;" d="M771.9,1045.869c0,8.579-126.053,17.855-277.073,17.855S220.61,1056,220.61,1047.426,771.9,1037.29,771.9,1045.869Z" transform="translate(-220.61 -1040.16)" fill="#d0dbfc"/>
  </g>
  <g id="_" data-name="+" transform="translate(0 141.069)">
    <g id="Layer_22" data-name="Layer 22" transform="translate(333.473 43.662)">
      <g id="_Group_" data-name="&lt;Group&gt;">
        <path id="_Path_2" data-name="&lt;Path&gt;" d="M916.716,472.01q-11.627,4.828-27.6,15.6-2.7,1.82-5.962,26.952-2.62-21.907-4.174-20.694a226.629,226.629,0,0,0-32.872,31.743c-1.24,1.462,12.384,18.441,11.16,19.971-1.356,1.688-17.555-12.072-18.889-10.3-16.33,21.644-58.985,81.077-65.158,113.669l43.462,17.919c51.566,5.134,68.377-12.41,74.772-25.532q1.132-2.327-43.367-8.389,48.872-3.126,49.9-5.35c7.6-16.383,15.476-34.84,20.947-51.329.818-2.469-50.685-.316-49.978-2.691.311-1.045,52.875-6.653,53.165-7.677a101.726,101.726,0,0,0,3.915-20.673q.111-1.987-40.254.559,39.929-8.991,40.523-14.336C928.272,513.6,923.227,493.633,916.716,472.01Z" transform="translate(-773.22 -472.01)" fill="#84c4e2"/>
      </g>
      <g id="_Group_2" data-name="&lt;Group&gt;" transform="translate(73.321)">
        <path id="_Path_3" data-name="&lt;Path&gt;" d="M912.18,620.952l37.964-80.57c-.127-.95-.216-1.9-.327-2.86-.38-3.277-.733-6.559-1.1-9.841-.908-8.078-1.43-16.209-2.448-24.277q-1.211-9.672-1.646-9.534c1.214-.57,2.126,6.131,2.575,8.553.707,3.8,1.082,7.171,1.673,10.991,1.182,7.6,2.332,15.191,3.213,22.836,0,.005.005.005.005.01l30.271-64.25q-15.4,37.8-29.632,70.772c.105-.032.211-.069.311-.106,1.108-.417,26.915-1.525,38.908-11.561l-.338,1.229c-11.824,11.687-39.182,13.275-40.18,13.439-4.812,11.117-6.458,14.536-11.334,25.168a7.364,7.364,0,0,0,1.931-.179l3.234-.4q5.706-.7,11.407-1.388c8.817-1.071,17.671-1.815,26.5-2.749,1.377-.148,2.543-.222,3.5-.232q-8.714,1.868-14.468,2.86c-8.659,1.493-17.333,2.865-26.023,4.195-1.214.19-2.432.375-3.651.565a6.424,6.424,0,0,1-3.635-.047C927.07,599.2,916.375,619.87,912.18,620.952Z" transform="translate(-912.18 -472.01)" fill="#aee4f4"/>
      </g>
      <g id="_Group_3" data-name="&lt;Group&gt;" transform="translate(69.221 155.585)">
        <path id="_Path_4" data-name="&lt;Path&gt;" d="M959.96,766.88,905,770.088l-.591,2.876Q947.354,769.473,959.96,766.88Z" transform="translate(-904.41 -766.88)" fill="#4e9dc4"/>
      </g>
      <path id="_Path_5" data-name="&lt;Path&gt;" d="M911.35,573.6l29.31,36.713-3.356,6.965Q910.8,577.618,911.35,573.6Z" transform="translate(-838.462 -519.997)" fill="#aee4f4"/>
    </g>
    <g id="Layer_18" data-name="Layer 18" transform="translate(75.06)">
      <g id="_Group_4" data-name="&lt;Group&gt;">
        <path id="_Path_6" data-name="&lt;Path&gt;" d="M304.405,389.26q14.42,7.59,33.742,23.327,3.261,2.659-2.142,58.689,12.608-51.191,14.463-49.445a292.859,292.859,0,0,1,39.916,46.543c.849,1.235-10.067,17.781-9.223,19.042,20.683,31.009,50,55.091,54.431,101.423q3.047,28.334-.069,26.5t-80.792,60.515Q344.348,659.1,331.98,637.377c-1.646-2.891,29.912-17.354,28.218-20.393-1.192-2.132-35.626,7.2-36.824,5.018-12.479-22.715-25.042-47.609-30.012-63.9-.628-2.058,32.824-1.942,32.233-4.1q-.7-2.58-36.075-10.173a232.031,232.031,0,0,1-5.888-61.707q.095-2.556,45.023,6.7-44.092-21.045-43.725-24.4A279.956,279.956,0,0,1,304.405,389.26Z" transform="translate(-283.467 -389.26)" fill="#f7ab61"/>
      </g>
      <g id="_Group_5" data-name="&lt;Group&gt;" transform="translate(20.938)">
        <path id="_Path_7" data-name="&lt;Path&gt;" d="M323.15,389.26q14.42,7.59,33.742,23.327,3.261,2.659-2.142,58.689,12.608-51.191,14.463-49.445a292.856,292.856,0,0,1,39.916,46.543c.876,1.272-5.883,11.962-5.018,13.265,20.657,30.988,45.8,60.926,50.226,107.2q3.047,28.334-.069,26.5T385.205,570.4Z" transform="translate(-323.15 -389.26)" fill="#ffc68d"/>
      </g>
      <g id="_Group_6" data-name="&lt;Group&gt;" transform="translate(6.054)">
        <path id="_Path_8" data-name="&lt;Path&gt;" d="M309.825,389.26Q356.07,537.1,361.085,551.329c1.245,3.519-64.024-6.833-66.145-7.5.121.211,65.29,21.269,67.39,11.022,12.173,34.291,14.937,32.08,20.214,33.975Z" transform="translate(-294.94 -389.26)" fill="#ffe2cf"/>
      </g>
      <g id="_Group_7" data-name="&lt;Group&gt;" transform="translate(16.596 85.15)">
        <path id="_Path_9" data-name="&lt;Path&gt;" d="M314.92,550.64q.53.024,37.394,17.8l1.768,4.015Z" transform="translate(-314.92 -550.64)" fill="#ffe2cf"/>
      </g>
      <g id="_Group_8" data-name="&lt;Group&gt;" transform="translate(50.845 52.083)">
        <path id="_Path_10" data-name="&lt;Path&gt;" d="M389.3,487.97l-9.471,36.175.459,4.163Z" transform="translate(-379.83 -487.97)" fill="#ffe2cf"/>
      </g>
    </g>
    <g id="Layer_23" data-name="Layer 23" transform="translate(0 143.473)">
      <g id="_Group_9" data-name="&lt;Group&gt;">
        <path id="_Path_11" data-name="&lt;Path&gt;" d="M363.736,853.339c-10.173,9.672-44.216,4.717-69.923-5.424a182.554,182.554,0,0,1-21.765-10.342c5.371-.3,39.13-4.163,30.962-54.373-.364-2.232-27.532,26.181-31.611,54.009-11.075-6.231-22.393-13.618-39.467-29.806-3.941-3.736-16.927-18.626-24.409-30.577,5.039-2.453,27.822-15.117,40.575-48.68.791-2.089-39.008,10.722-41.467,47.224a178.48,178.48,0,0,1-17.254-37.346c.047-.016.111-.042.169-.063-.148-.39-.274-.786-.385-1.187-.063-.232-.111-.47-.169-.707-.016.2-.037.39-.053.591a204.362,204.362,0,0,1-6.838-27.991c2.216-2.343,9.714-13.165,2.5-47.324-.438-2.095-11.735,15.861-4.6,42.8a207.707,207.707,0,0,0,7.15,31.373q-31.832-24.836-45.936.322c17.934,7.16,43.314,2.031,46.152.364a180.651,180.651,0,0,0,17.9,39.536c.032.021,2.406,3.825,2.823,4.474a173.972,173.972,0,0,0,24.767,30.038c-.005.032-.011.058-.016.09h.111c.332.322.67.638,1,.955q-38.006-8.366-61.7,7.028c28.339,18.209,58.468-.522,63.433-5.4a183.847,183.847,0,0,0,28.324,21.491,21.106,21.106,0,0,1,5.049,3.055l.016-.016a184.42,184.42,0,0,0,24.245,11.729c18.953,7.477,36.354,10.7,49.492,10.7,10.41,0,18.151-2.021,21.865-5.556Z" transform="translate(-141.21 -661.176)" opacity="0.646" fill="url(#linear-gradient)"/>
      </g>
      <g id="_Group_10" data-name="&lt;Group&gt;" transform="translate(13.059 33.084)">
        <g id="_Group_11" data-name="&lt;Group&gt;" transform="translate(60.631 138.493)">
          <path id="_Path_12" data-name="&lt;Path&gt;" d="M335.043,991.054q-27.092-11.547-54.173,5.282c26.551,15.381,48,1.683,54.115-4.4C336.135,990.938,335.074,991.117,335.043,991.054Z" transform="translate(-280.87 -986.355)" fill="#1a2df3"/>
        </g>
        <g id="_Group_12" data-name="&lt;Group&gt;" transform="translate(34.671)">
          <path id="_Path_13" data-name="&lt;Path&gt;" d="M266.879,724.112c.765-2.021-31.078,8.875-35.209,42.163.169.069.285.934.438,1.367C237.622,765.172,255.124,755.036,266.879,724.112Z" transform="translate(-231.67 -723.879)" fill="#1a2df3"/>
        </g>
        <g id="_Group_13" data-name="&lt;Group&gt;" transform="translate(0 69.944)">
          <path id="_Path_14" data-name="&lt;Path&gt;" d="M218.65,870.643q-31.46-26.316-52.69-3.878c18.209,9.012,46.838,7.519,53.793,5.677a14.1,14.1,0,0,1-1.092-1.773C218.661,870.654,218.661,870.654,218.65,870.643Z" transform="translate(-165.96 -856.439)" fill="#1a2df3"/>
        </g>
        <g id="_Group_14" data-name="&lt;Group&gt;" transform="translate(80.175 61.569)">
          <path id="_Path_15" data-name="&lt;Path&gt;" d="M347.975,840.68c-.348-2.158-24.625,27.205-30.065,54.057.2-.021.512.237.834.528C328.463,893.771,355.2,885.1,347.975,840.68Z" transform="translate(-317.91 -840.567)" fill="#1a2df3"/>
        </g>
      </g>
    </g>
    <g id="Layer_20" data-name="Layer 20" transform="translate(375.747 98.38)">
      <g id="_Group_15" data-name="&lt;Group&gt;">
        <path id="_Path_16" data-name="&lt;Path&gt;" d="M854.095,732.352c8.294,7.767,35.827,3.556,56.579-4.807a147.23,147.23,0,0,0,17.56-8.5c-4.353-.206-31.706-3.139-25.385-43.836.28-1.81,22.446,21.032,25.912,43.535,8.928-5.108,18.045-11.154,31.774-24.361a171.242,171.242,0,0,0,19.581-24.9c-4.089-1.958-22.615-12.078-33.136-39.177-.654-1.683,31.648,8.453,33.853,37.99a144.9,144.9,0,0,0,13.745-30.334c-.037-.016-.09-.037-.137-.053.116-.317.216-.638.306-.96.047-.19.09-.385.132-.575.01.164.037.311.048.475a165.641,165.641,0,0,0,5.371-22.7c-1.81-1.884-7.941-10.6-2.3-38.3.343-1.7,9.593,12.769,3.978,34.624a168.011,168.011,0,0,1-5.6,25.437q25.627-20.293,37.193-.005c-14.479,5.9-35.056,1.9-37.367.565a146.1,146.1,0,0,1-14.257,32.117c-.021.016-1.921,3.108-2.258,3.635a140.619,140.619,0,0,1-19.876,24.467c.005.026.011.048.016.074h-.09c-.269.264-.538.522-.807.781q30.717-7,49.994,5.324c-22.836,14.911-47.34-.079-51.387-3.994a148.85,148.85,0,0,1-22.81,17.565,17.046,17.046,0,0,0-4.068,2.506c-.005-.005-.005-.01-.011-.016a149.952,149.952,0,0,1-19.56,9.64c-15.3,6.163-29.374,8.875-40.011,8.954-8.426.063-14.705-1.53-17.734-4.369Z" transform="translate(-853.34 -575.714)" fill="#f7ab61"/>
      </g>
      <g id="_Group_16" data-name="&lt;Group&gt;" transform="translate(77.357 27.018)">
        <g id="_Group_17" data-name="&lt;Group&gt;" transform="translate(0 112.696)">
          <path id="_Path_17" data-name="&lt;Path&gt;" d="M1000.536,844.376a5.011,5.011,0,0,1,2.29-.8.562.562,0,0,0,.348-.976c.375-.259.749-.522,1.108-.813a.42.42,0,0,0,.116-.143q27.946-4.06,39.388,6.316c-21.406,12.611-38.85,1.646-43.836-3.245C1000.145,844.6,1000.335,844.486,1000.536,844.376Z" transform="translate(-999.95 -840.506)" fill="#ffcda4"/>
        </g>
        <g id="_Group_18" data-name="&lt;Group&gt;" transform="translate(35.462)">
          <path id="_Path_18" data-name="&lt;Path&gt;" d="M1067.17,627.11c-.633-1.63,25.216,7,28.756,33.927-.137.058-.227.76-.348,1.113C1091.1,660.182,1076.868,652.077,1067.17,627.11Z" transform="translate(-1067.158 -626.919)" fill="#ffcda4"/>
        </g>
        <g id="_Group_19" data-name="&lt;Group&gt;" transform="translate(49.002 56.343)">
          <path id="_Path_19" data-name="&lt;Path&gt;" d="M1093.707,745.388q25.319-21.5,42.633-3.451c-14.69,7.4-37.879,6.363-43.52,4.912a10.833,10.833,0,0,0,.876-1.44C1093.7,745.4,1093.7,745.394,1093.707,745.388Z" transform="translate(-1092.82 -733.702)" fill="#ffcda4"/>
        </g>
        <g id="_Group_20" data-name="&lt;Group&gt;" transform="translate(2.251 50.088)">
          <path id="_Path_20" data-name="&lt;Path&gt;" d="M1005.126,721.938c.269-1.746,20.1,21.881,24.662,43.588-.164-.016-.412.2-.67.433C1021.234,764.8,999.533,757.939,1005.126,721.938Z" transform="translate(-1004.216 -721.847)" fill="#ffcda4"/>
        </g>
      </g>
    </g>
    <g id="_2" data-name="+" transform="translate(356.567 191.126)">
      <g id="_Group_21" data-name="&lt;Group&gt;" transform="translate(19.18 34.956)">
        <g id="_Group_22" data-name="&lt;Group&gt;">
          <path id="_Path_21" data-name="&lt;Path&gt;" d="M1034.22,941.851H871.443a18.1,18.1,0,0,1-18.1-18.1v-87.9a18.1,18.1,0,0,1,18.1-18.1H1034.22a18.1,18.1,0,0,1,18.1,18.1v87.9A18.1,18.1,0,0,1,1034.22,941.851Z" transform="translate(-853.34 -817.74)" fill="#1a2df3"/>
        </g>
      </g>
      <g id="_Group_23" data-name="&lt;Group&gt;" transform="translate(0 35.468)">
        <g id="_Group_24" data-name="&lt;Group&gt;">
          <path id="_Path_22" data-name="&lt;Path&gt;" d="M997.87,942.821H835.093a18.1,18.1,0,0,1-18.1-18.1v-87.9a18.1,18.1,0,0,1,18.1-18.1H997.87a18.1,18.1,0,0,1,18.1,18.1v87.9A18.1,18.1,0,0,1,997.87,942.821Z" transform="translate(-816.99 -818.71)" fill="#6d79f7"/>
        </g>
      </g>
      <g id="_Group_25" data-name="&lt;Group&gt;" transform="translate(43.298)">
        <g id="_Group_26" data-name="&lt;Group&gt;">
          <path id="_Compound_Path_" data-name="&lt;Compound Path&gt;" d="M965.126,822.426H934.518a35.468,35.468,0,0,1,0-70.936h30.608a35.468,35.468,0,1,1,0,70.936ZM934.518,766.6a20.354,20.354,0,1,0,0,40.707h30.608a20.354,20.354,0,1,0,0-40.707Z" transform="translate(-899.05 -751.49)" fill="#6d79f7" fill-rule="evenodd"/>
        </g>
      </g>
      <g id="_Group_27" data-name="&lt;Group&gt;" transform="translate(0 34.956)">
        <g id="_Group_28" data-name="&lt;Group&gt;">
          <path id="_Path_23" data-name="&lt;Path&gt;" d="M816.99,842.987a25.249,25.249,0,0,1,25.247-25.247h158.128c13.94,0,16.468,10.02,15.607,25.247Z" transform="translate(-816.99 -817.74)" fill="#5260ea"/>
        </g>
      </g>
      <g id="_Group_29" data-name="&lt;Group&gt;" transform="translate(65.823 73.273)">
        <g id="_Group_30" data-name="&lt;Group&gt;">
          <path id="_Path_24" data-name="&lt;Path&gt;" d="M1002.8,914.4H981.688v-17.76a6.279,6.279,0,1,0-12.558,0V914.4H948.019a6.281,6.281,0,0,0-6.279,6.279h0a6.277,6.277,0,0,0,6.279,6.279H969.13v24.461a6.279,6.279,0,0,0,12.558,0V926.957H1002.8a6.277,6.277,0,0,0,6.279-6.279h0A6.28,6.28,0,0,0,1002.8,914.4Z" transform="translate(-941.74 -890.36)" fill="#fff"/>
        </g>
      </g>
    </g>
  </g>
  <g id="phone" transform="translate(141.597 0)">
    <path id="_Path_25" data-name="&lt;Path&gt;" d="M635.79,613.442H443.7a34.125,34.125,0,0,1-34.128-34.128V156.028A34.125,34.125,0,0,1,443.7,121.9H635.79a34.125,34.125,0,0,1,34.128,34.128V579.315A34.126,34.126,0,0,1,635.79,613.442Z" transform="translate(-409.57 -121.9)" fill="#0065aa"/>
    <g id="_Clip_Group_" data-name="&lt;Clip Group&gt;" transform="translate(10.194 11.08)" clip-path="url(#clip-path)">
      <path id="_Mesh_" data-name="&lt;Mesh&gt;" d="M399.16,612.295H542.852V141.13H399.16Zm143.692,0h143.5V141.13h-143.5Z" transform="translate(-414.847 -142.064)" fill="url(#linear-gradient-2)"/>
    </g>
    <path id="_Path_26" data-name="&lt;Path&gt;" d="M653.139,153.378H547.232a11.391,11.391,0,0,1-11.392-11.392V134.51H664.531v7.477A11.391,11.391,0,0,1,653.139,153.378Z" transform="translate(-469.215 -127.856)" fill="#0065aa"/>
  </g>
  <g id="chat" transform="translate(347.939 43.732)">
    <path id="_Path_27" data-name="&lt;Path&gt;" d="M995.818,244.5c-3.588-34.988-66.789-44.675-127.345-37.5s-62.9,20.9-61.338,62.214c.512,13.56,4.237,24.314,10.278,32.8-3.714,12.69-18.652,15.3-16.578,17.291,10.674,10.252,29.469.844,34-1.662,29.226,17.148,75.537,14.647,108.957,9.93C988.193,321.3,999.754,282.85,995.818,244.5Z" transform="translate(-800.638 -204.782)" fill="#1a2df3"/>
    <path id="_Path_28" data-name="&lt;Path&gt;" d="M929.878,316.4a6.424,6.424,0,1,1-6.427-6.421A6.425,6.425,0,0,1,929.878,316.4Z" transform="translate(-855.617 -254.474)" fill="#fff"/>
    <path id="_Path_29" data-name="&lt;Path&gt;" d="M990.038,316.4a6.424,6.424,0,1,1-6.421-6.421A6.423,6.423,0,0,1,990.038,316.4Z" transform="translate(-884.034 -254.474)" fill="#fff"/>
    <path id="_Path_30" data-name="&lt;Path&gt;" d="M1047.9,316.4a6.424,6.424,0,1,1-6.427-6.421A6.425,6.425,0,0,1,1047.9,316.4Z" transform="translate(-911.365 -254.474)" fill="#fff"/>
  </g>
  <g id="Layer_16" data-name="Layer 16" transform="translate(139.195 69.086)">
    <g id="Layer_13" data-name="Layer 13" transform="translate(0.152 111.699)">
      <path id="_Path_31" data-name="&lt;Path&gt;" d="M596.257,498.039c.644-1.024,25.242,11.328,52.88-4.823q27.638-16.146,11.487,153.87l-2.242,88.247-3.139,42.612H586.39l-14.13-134.12Q586.649,513.259,596.257,498.039Z" transform="translate(-484.169 -477.419)" fill="#5dcec1"/>
      <path id="_Path_32" data-name="&lt;Path&gt;" d="M789.434,524.92q-11.246-9.672-63.021-29.31l-8.453,15.1q2.738,187.275,1.324,225.856l-.016,43.171h63.185l.317-97.523c18.272-4.633,32.318-12.336,40.032-20.784,8.759-9.587,10.875-15,10.875-27.743S800.683,534.592,789.434,524.92Z" transform="translate(-552.992 -479.211)" fill="#fff"/>
      <path id="_Path_33" data-name="&lt;Path&gt;" d="M511.706,666.114c.4-.644.7-1.145.923-1.493V498.8q-51.777,19.636-63.026,29.31c-11.249,9.666-43.958,99.09-44.264,111.838q-1.235,50.574,42.749,114.381a24.61,24.61,0,0,0,4.11-2.475q-.855,11.785-2.316,29.39h68.635q.23-52.41,0-54.8C518.381,725.025,514.688,692.375,511.706,666.114Z" transform="translate(-405.306 -480.718)" fill="#fff"/>
      <g id="_Group_31" data-name="&lt;Group&gt;" transform="translate(191.44 113.02)">
        <g id="_Group_32" data-name="&lt;Group&gt;">
          <path id="_Path_34" data-name="&lt;Path&gt;" d="M793.219,705.972l-11.566,6.859a.85.85,0,0,1-.86.011l-12.225-6.875a.856.856,0,0,1-.438-.749V679.59a.86.86,0,0,1,.86-.86h23.791a.86.86,0,0,1,.86.86v25.638A.857.857,0,0,1,793.219,705.972Z" transform="translate(-768.13 -678.73)" fill="#d5e1ed"/>
        </g>
      </g>
      <g id="_Group_33" data-name="&lt;Group&gt;" transform="translate(191.44 118.196)">
        <g id="_Group_34" data-name="&lt;Group&gt;">
          <path id="_Path_35" data-name="&lt;Path&gt;" d="M793.219,710.606l-11.566,6.859a.851.851,0,0,1-.86.01L768.568,710.6a.856.856,0,0,1-.438-.749V689.405a.861.861,0,0,1,.86-.865h23.791a.861.861,0,0,1,.86.865v20.456A.857.857,0,0,1,793.219,710.606Z" transform="translate(-768.13 -688.54)" fill="#b8ddff"/>
        </g>
      </g>
      <g id="_Group_35" data-name="&lt;Group&gt;" transform="translate(166.292 1.984)" opacity="0.502">
        <g id="_Group_36" data-name="&lt;Group&gt;">
          <path id="_Path_36" data-name="&lt;Path&gt;" d="M720.47,725.339V468.29q2.176,4,10.131,12.057a117.638,117.638,0,0,1,18.473,25.305l-17.961-3.477,23.332,23.48L736.89,628.84l-12.426,1.852,7.862,24.973Z" transform="translate(-720.47 -468.29)" fill="#8fa7d7"/>
        </g>
      </g>
      <g id="_Group_37" data-name="&lt;Group&gt;" transform="translate(75.57 1.831)" opacity="0.502">
        <path id="_Path_37" data-name="&lt;Path&gt;" d="M572.374,480.057a117.733,117.733,0,0,0-18.473,25.3l17.961-3.472-23.332,23.48,37.642,194.6L582.5,468Q580.328,471.989,572.374,480.057Z" transform="translate(-548.53 -468)" fill="#8fa7d7"/>
      </g>
      <g id="_Group_38" data-name="&lt;Group&gt;" transform="translate(162.393)">
        <g id="_Group_39" data-name="&lt;Group&gt;">
          <path id="_Path_38" data-name="&lt;Path&gt;" d="M716.979,712.8l-3.9-248.27q4.036,1.733,11.993,9.8,9.949,10.083,16.6,27.559l-17.961-3.472,23.332,23.48L730.328,628.061l-8.569,1.979,6.274,12.589Z" transform="translate(-713.08 -464.53)" fill="#fff"/>
        </g>
      </g>
      <g id="_Group_40" data-name="&lt;Group&gt;" transform="translate(79.237)">
        <g id="_Group_41" data-name="&lt;Group&gt;">
          <path id="_Path_39" data-name="&lt;Path&gt;" d="M589.455,710.256V464.53q-4.044,1.733-11.993,9.8-9.949,10.083-16.61,27.559l17.966-3.472-23.338,23.48Z" transform="translate(-555.48 -464.53)" fill="#fff"/>
        </g>
      </g>
      <path id="_Path_40" data-name="&lt;Path&gt;" d="M647.888,964.765a157.628,157.628,0,0,1-27.828-2.4v-1.44c.269.053,27.564,5.44,52.98-.069v1.446A119.208,119.208,0,0,1,647.888,964.765Z" transform="translate(-506.748 -698.977)" fill="#38a595"/>
      <g id="_Group_42" data-name="&lt;Group&gt;" transform="translate(113.212 35.536)">
        <path id="_Path_41" data-name="&lt;Path&gt;" d="M644.342,539.726A60.562,60.562,0,0,1,619.87,534.7v-1.741c.243.121,25.306,12.025,49.735-1.082l.032,1.688A52.252,52.252,0,0,1,644.342,539.726Z" transform="translate(-619.87 -531.88)" fill="#38a595"/>
      </g>
      <path id="_Path_42" data-name="&lt;Path&gt;" d="M448.56,766.45q18.694,3.585,28.408,13.307Q452.749,767.648,448.56,766.45Z" transform="translate(-425.738 -607.146)" fill="#8fa7d7" opacity="0.502"/>
      <path id="_Path_43" data-name="&lt;Path&gt;" d="M524.733,924.33l3.92,4.754q-7.891,19.3-16.642,29.474l-7.1-9.872Q515.832,940.36,524.733,924.33Z" transform="translate(-452.355 -681.722)" fill="#ffcca9"/>
      <path id="_Path_44" data-name="&lt;Path&gt;" d="M489.565,766.45c.448.744,6.727,6.727,8.822,12.558L488.52,767.8Z" transform="translate(-444.613 -607.146)" fill="#8fa7d7" opacity="0.502"/>
      <path id="_Path_45" data-name="&lt;Path&gt;" d="M512.125,643.453c-.048-.9-5.741,74.36-8.178,84.206l18.911,57.84q-9.98,22.58-28.677,34.682,11.967-1.789,30.8-27.8-9.418,26.909-22.725,38.275,20.934-12.41,27.063-50.089l-19.739-52.906Q513.025,660.195,512.125,643.453Z" transform="translate(-447.287 -549.043)" fill="#8fa7d7" opacity="0.502"/>
      <path id="_Path_46" data-name="&lt;Path&gt;" d="M832.642,849.27l-9.1,2.628,1.393,8.162,7.709-2.981Z" transform="translate(-602.864 -646.266)" fill="#8fa7d7" opacity="0.502"/>
      <path id="_Path_47" data-name="&lt;Path&gt;" d="M789.2,691.5l.005-.005-6.923-56.684,2.148,58.483q-23.221,8.817-48.237,19.348,13.289-3.427,29.606-7.777t46.654-21.38C806.26,685.3,798,688.212,789.2,691.5Z" transform="translate(-561.603 -544.964)" fill="#8fa7d7" opacity="0.502"/>
    </g>
    <g id="Layer_26" data-name="Layer 26" transform="translate(0 188.486)">
      <path id="_Path_48" data-name="&lt;Path&gt;" d="M825.181,637.51Q839.8,676.861,839.955,702.4c.058,9.5-5.366,17.349-9.271,20.182a146.534,146.534,0,0,1-84.992,28.651q-.388,6.34-1.282,7.535,83.071-5.5,98.953-41.478,3.609-5.73,2.791-14.742C844.609,685.573,835.169,661.734,825.181,637.51Z" transform="translate(-565.334 -623.026)" fill="#8fa7d7" opacity="0.102"/>
      <path id="_Path_49" data-name="&lt;Path&gt;" d="M433.512,610.086c.58-1.509-23.675,60.256-23.459,82.491.448,46.67,34.909,105.543,42.011,111.833l-4.11,2.475Q402.2,738.93,405.2,692.5C405.795,683.322,406.908,679.27,433.512,610.086Z" transform="translate(-405.018 -610.059)" fill="#8fa7d7" opacity="0.102"/>
    </g>
    <g id="Layer_21" data-name="Layer 21" transform="translate(131.636 215.069)">
      <path id="_Path_50" data-name="&lt;Path&gt;" d="M702.162,769.762c2.7-27.363-5.171-44.221-4.258-44.633,8.885-4,30.957-12.684,48.743-19.576l.76-40.306-90.843-3.678L654.5,795.748l90.516-3.683.554-29.279A302.049,302.049,0,0,1,702.162,769.762Z" transform="translate(-654.5 -660.974)" fill="#ae376d"/>
      <path id="_Path_51" data-name="&lt;Path&gt;" d="M750.651,663.479l.042-1.63-24.641-1.409-.042,2.042Z" transform="translate(-688.279 -660.44)" fill="#a1b5bf"/>
      <path id="_Path_52" data-name="&lt;Path&gt;" d="M731.129,668.982a.514.514,0,1,1-1.029,0,.514.514,0,0,1,1.029,0Z" transform="translate(-690.211 -664.233)" fill="#a1b5bf"/>
      <path id="_Path_53" data-name="&lt;Path&gt;" d="M768.488,670.731a.313.313,0,0,1-.317.311.311.311,0,0,1,0-.623A.313.313,0,0,1,768.488,670.731Z" transform="translate(-708.047 -665.154)" fill="#a1b5bf"/>
    </g>
    <g id="Layer_6" data-name="Layer 6" transform="translate(96.224 16.233)">
      <g id="_Group_43" data-name="&lt;Group&gt;" transform="translate(72.305 45.218)">
        <g id="_Group_44" data-name="&lt;Group&gt;">
          <path id="_Path_54" data-name="&lt;Path&gt;" d="M733.564,387.2c-2.591,9.329-7.16,16.473-9.144,15.924q1.393-5.936,3.261-15.439c2.158-11.017,2.464-18.789,6.975-18.367C736.7,369.505,736.149,377.868,733.564,387.2Z" transform="translate(-724.42 -369.299)" fill="#f0ba92"/>
        </g>
      </g>
      <g id="_Group_45" data-name="&lt;Group&gt;" transform="translate(72.305 46.629)" opacity="0.6">
        <g id="_Group_46" data-name="&lt;Group&gt;">
          <path id="_Path_55" data-name="&lt;Path&gt;" d="M730.1,384.6c-2.353,9.387-3.693,20.33-5.677,19.781q1.978-8.469,3.841-17.966c2.158-11.022,1.936-14.832,6.448-14.415Q732.952,373.2,730.1,384.6Z" transform="translate(-724.42 -371.972)" fill="#d88d64"/>
        </g>
      </g>
      <g id="_Group_47" data-name="&lt;Group&gt;" transform="translate(0 45.218)">
        <g id="_Group_48" data-name="&lt;Group&gt;">
          <path id="_Path_56" data-name="&lt;Path&gt;" d="M589.725,387.2c2.585,9.329,6.88,16.536,8.864,15.982a142.015,142.015,0,0,1-3.361-15.776c-1.72-11.1-2.089-18.51-6.6-18.087C586.58,369.5,587.14,377.868,589.725,387.2Z" transform="translate(-587.385 -369.298)" fill="#f0ba92"/>
        </g>
      </g>
      <g id="_Group_49" data-name="&lt;Group&gt;" transform="translate(0.915 46.691)" opacity="0.6">
        <g id="_Group_50" data-name="&lt;Group&gt;">
          <path id="_Path_57" data-name="&lt;Path&gt;" d="M592.618,383.645c2.353,9.392,4.807,21.417,6.791,20.868q-2.105-9.672-3.973-19.169c-2.158-11.017-1.8-13.634-6.316-13.212Q589.761,372.235,592.618,383.645Z" transform="translate(-589.12 -372.09)" fill="#d88d64"/>
        </g>
      </g>
      <g id="_Group_51" data-name="&lt;Group&gt;" transform="translate(17.13 90.501)">
        <g id="_Group_52" data-name="&lt;Group&gt;">
          <path id="_Path_58" data-name="&lt;Path&gt;" d="M669.385,481.94q-3.419,9.007-24.936,9.007t-24.6-8.463V455.12h49.192Z" transform="translate(-619.85 -455.12)" fill="#f0ba92"/>
        </g>
      </g>
      <g id="_Group_53" data-name="&lt;Group&gt;" transform="translate(17.13 83.33)" opacity="0.6">
        <g id="_Group_54" data-name="&lt;Group&gt;">
          <path id="_Path_59" data-name="&lt;Path&gt;" d="M669.073,455.65c-4.443,9.281-21.823,16.568-24.63,16.568s-17.565-5.6-24.593-16.41V441.53h49.192Z" transform="translate(-619.85 -441.53)" fill="#d88d64"/>
        </g>
      </g>
      <g id="_Group_55" data-name="&lt;Group&gt;" transform="translate(2.194)">
        <g id="_Group_56" data-name="&lt;Group&gt;">
          <path id="_Path_60" data-name="&lt;Path&gt;" d="M661.654,362.64q-8.2,26.941-30.582,27.39-23.641-.063-30.7-28.033c-4.664-18.452-15.877-46.717-2.432-67.659,7.609-11.851,62.942-16.589,69.458,0S666.461,346.842,661.654,362.64Z" transform="translate(-591.544 -283.599)" fill="#ffcca9"/>
        </g>
      </g>
      <g id="_Group_57" data-name="&lt;Group&gt;" transform="translate(29.034 77.184)">
        <path id="_Path_61" data-name="&lt;Path&gt;" d="M667.579,431.2c.907.755-1.884,10.5-12.009,10.6-8.59.09-12.9-8.738-12.12-10.057.96-1.63,4.385-.528,11.772-.528S666.6,430.373,667.579,431.2Z" transform="translate(-642.86 -430.331)" fill="#fff"/>
        <path id="_Compound_Path_2" data-name="&lt;Compound Path&gt;" d="M655,441.852a13.522,13.522,0,0,1-11.46-6.96c-.776-1.34-1.435-3.06-.966-3.857.786-1.335,2.622-1.219,5.957-1.008,1.657.105,3.72.232,6.247.232,3.018,0,5.435-.137,7.376-.253,3.044-.169,4.575-.264,5.3.354.7.575.164,2.343-.1,3.071a12.777,12.777,0,0,1-12.225,8.421Zm-9.3-10.949c-1.208,0-1.968.148-2.258.644-.111.227.105,1.53,1.287,3.366.9,1.4,4.284,5.931,10.273,5.931h.121a11.762,11.762,0,0,0,10.173-5.482,7.724,7.724,0,0,0,1.483-4.263c-.5-.322-2.3-.216-4.564-.084-1.958.111-4.39.248-7.434.248-2.559,0-4.638-.127-6.311-.232C647.371,430.962,646.447,430.9,645.693,430.9Z" transform="translate(-642.412 -429.88)" fill="#d3976e" fill-rule="evenodd"/>
      </g>
      <g id="_Group_58" data-name="&lt;Group&gt;" transform="translate(39.479 55.877)">
        <path id="_Path_62" data-name="&lt;Path&gt;" d="M664.488,403.445a4.95,4.95,0,0,1-1.958-5.931c.923-2.733,1.05-7.962,1.05-8.015l1,.026c-.005.216-.132,5.435-1.1,8.31a3.955,3.955,0,0,0,1.594,4.791Z" transform="translate(-662.208 -389.5)" fill="#d88d64"/>
      </g>
      <path id="_Path_63" data-name="&lt;Path&gt;" d="M693.69,791.562l-9.276,1.409c-11.84,1.034-16.225-8.094-26.683-6.743q-10.463,1.353-9.213,5.5-6.933.19-5.108,9.788-3.277,4.883.132,10.511-2.382,3.379.792,8.49c.892,5.556,7.635,10.152,14.885,10.912.243.032.491.042.739.063s.517.037.776.042c.274.01.549.005.823,0,.385-.005.765-.021,1.15-.048.026-.005.048,0,.074-.005a.264.264,0,0,0,.063-.01c.327-.026.654-.042.976-.084q8.754-1.2,32.867-10.954Q697.059,801.614,693.69,791.562Z" transform="translate(-613.091 -520.957)" fill="#ffcca9"/>
      <path id="_Path_64" data-name="&lt;Path&gt;" d="M654.465,796.78a81.372,81.372,0,0,0,9.255,1.4,122.725,122.725,0,0,1,12.568,1.9q-9.766-.815-12.632-1C661.472,798.949,653.552,796.865,654.465,796.78Z" transform="translate(-619.036 -526.006)" fill="#d88d64"/>
      <path id="_Path_65" data-name="&lt;Path&gt;" d="M651.6,813.946q-4.416-1.8-5.7-3.562a8.267,8.267,0,0,1-1.377-3.62,11.968,11.968,0,0,0,.095,4.516Z" transform="translate(-614.29 -530.72)" fill="#d88d64"/>
      <path id="_Path_66" data-name="&lt;Path&gt;" d="M650.819,833.964a29.515,29.515,0,0,1-5.894-3.213A9.007,9.007,0,0,1,642.34,827a9.467,9.467,0,0,0,1.493,4.3Z" transform="translate(-613.343 -540.281)" fill="#d88d64"/>
      <path id="_Path_67" data-name="&lt;Path&gt;" d="M652.169,849.855a29.6,29.6,0,0,1-5.9-3.213,10.571,10.571,0,0,1-2.76-4.026,10.221,10.221,0,0,0,1.673,4.575Z" transform="translate(-613.896 -547.655)" fill="#d88d64"/>
      <path id="_Path_68" data-name="&lt;Path&gt;" d="M655.375,792.13q-1.06,2.446.855,2.775l.311.438-2.037-.76A2.788,2.788,0,0,1,655.375,792.13Z" transform="translate(-619.076 -523.81)" fill="#d88d64"/>
    </g>
    <g id="_Group_59" data-name="&lt;Group&gt;" transform="translate(82.006 128.911)" opacity="0.102">
      <g id="_Group_60" data-name="&lt;Group&gt;" transform="translate(0 17.249)">
        <g id="_Group_61" data-name="&lt;Group&gt;">
          <path id="_Path_69" data-name="&lt;Path&gt;" d="M577.747,556.707l.438-26.867-2.248.433-.438,26.6c-12.173,2.079-14.61,23.7-15.027,51.26,0,.005.005.011.005.016l-.037,1.535c0,5.63,3,7.033,6.822,7.63a33.719,33.719,0,0,0,4.205.343,2.293,2.293,0,0,0,4.39-.929v-1.873a2.3,2.3,0,0,0-2.3-2.3,2.269,2.269,0,0,0-2.232,1.984c-3.05-.153-6.812-.807-8.031-3.06-1.192-2.2-.5-6.87-.39-10.025.8-24.1,3.424-42.417,14.605-42.417s16.394,18.267,17.212,42.317c.1,3.023.623,7.45-.5,9.7-1.024,2.042-3.778,2.939-6.511,3.308a2.291,2.291,0,0,0-4.485.881l.227,1.857a2.292,2.292,0,0,0,4.49.322c4.385-.607,9.35-2.543,9.191-8.289l-.032-2.264c.01-.032.021-.069.032-.1C596.589,578.594,591.091,556.982,577.747,556.707Z" transform="translate(-560.44 -529.84)" fill="#0e3368"/>
        </g>
      </g>
      <g id="_Group_62" data-name="&lt;Group&gt;" transform="translate(98.299)">
        <g id="_Group_63" data-name="&lt;Group&gt;">
          <path id="_Path_70" data-name="&lt;Path&gt;" d="M774.763,562.978C772.5,509.739,747.8,497.646,746.74,497.15q1.433,1.14,7.624,9.714c6.448,8.928,16.462,25.015,17.813,56.183a10.919,10.919,0,1,0,2.585-.069Z" transform="translate(-746.74 -497.15)" fill="#0e3368"/>
        </g>
      </g>
      <path id="_Path_71" data-name="&lt;Path&gt;" d="M752.9,852.207l-.449,29.505-82.058,3.139-.121,10.368,87.794-3.72V850.93Z" transform="translate(-612.32 -664.262)" fill="#0e3368"/>
    </g>
    <g id="Layer_12" data-name="Layer 12" transform="translate(78.899 121.497)">
      <g id="_Group_64" data-name="&lt;Group&gt;" transform="translate(0 48.923)">
        <g id="_Group_65" data-name="&lt;Group&gt;">
          <path id="_Path_72" data-name="&lt;Path&gt;" d="M591.242,625.713c-.549-28.366-4.8-49.893-18.346-49.893-13.766,0-17.876,22.235-18.32,51.255a.016.016,0,0,1,.005.011l-.032,1.541c0,5.63,3,7.033,6.817,7.63a33.76,33.76,0,0,0,4.211.338,2.291,2.291,0,0,0,4.39-.923v-1.878a2.276,2.276,0,0,0-4.532-.311c-3.044-.153-6.807-.807-8.031-3.06-1.187-2.2-.5-6.87-.39-10.025.807-24.1,4.728-42.227,15.908-42.227s15.1,18.077,15.908,42.127c.1,3.023.628,7.45-.5,9.7-1.024,2.042-3.773,2.939-6.506,3.308a2.294,2.294,0,0,0-4.49.881l.227,1.857a2.3,2.3,0,0,0,4.5.322c4.385-.607,9.344-2.548,9.186-8.294l-.026-2.258C591.221,625.782,591.237,625.745,591.242,625.713Z" transform="translate(-554.55 -575.82)" fill="#383f47"/>
        </g>
      </g>
      <g id="_Group_66" data-name="&lt;Group&gt;" transform="translate(16.357 25.094)">
        <g id="_Group_67" data-name="&lt;Group&gt;">
          <path id="_Path_73" data-name="&lt;Path&gt;" d="M587.8,555.66H585.55V531.1l2.248-.438Z" transform="translate(-585.55 -530.66)" fill="#383f47"/>
        </g>
      </g>
      <g id="_Group_68" data-name="&lt;Group&gt;" transform="translate(95.677 0.032)">
        <g id="_Group_69" data-name="&lt;Group&gt;">
          <path id="_Path_74" data-name="&lt;Path&gt;" d="M761.37,550.144c-1.166-31.89-11.344-48.237-17.871-57.27q-6.189-8.579-7.619-9.714c1.061.5,26.1,12.732,28.076,66.889Z" transform="translate(-735.88 -483.16)" fill="#383f47"/>
        </g>
      </g>
      <g id="_Group_70" data-name="&lt;Group&gt;" transform="translate(95.64)">
        <g id="_Group_71" data-name="&lt;Group&gt;">
          <path id="_Path_75" data-name="&lt;Path&gt;" d="M762.783,550.717c-1.736-33.162-9.656-47.683-16.183-56.716q-6.189-8.572-10.79-10.9c1.061.491,26.139,13.745,28.112,67.9Z" transform="translate(-735.81 -483.1)" fill="#1a2026"/>
        </g>
      </g>
      <g id="_Group_72" data-name="&lt;Group&gt;" transform="translate(111.363 65.485)">
        <g id="_Group_73" data-name="&lt;Group&gt;" transform="translate(0.317 0.322)">
          <path id="_Path_76" data-name="&lt;Path&gt;" d="M788.144,618.784a10.967,10.967,0,1,1-10.97-10.964A10.971,10.971,0,0,1,788.144,618.784Z" transform="translate(-766.21 -607.82)" fill="#bcbcbc"/>
        </g>
        <g id="_Group_74" data-name="&lt;Group&gt;">
          <path id="_Compound_Path_3" data-name="&lt;Compound Path&gt;" d="M776.891,629.782A11.286,11.286,0,1,1,788.177,618.5,11.293,11.293,0,0,1,776.891,629.782Zm0-21.934A10.648,10.648,0,1,0,787.539,618.5,10.666,10.666,0,0,0,776.891,607.848Z" transform="translate(-765.61 -607.21)" fill="#444" fill-rule="evenodd"/>
        </g>
      </g>
      <g id="_Group_75" data-name="&lt;Group&gt;" transform="translate(125.314 72.914)" opacity="0.302">
        <g id="_Group_76" data-name="&lt;Group&gt;">
          <path id="_Path_77" data-name="&lt;Path&gt;" d="M794.82,635.072l-2.77-5.825,1.958-5.371,6.047-2.585Q803.584,629.046,794.82,635.072Z" transform="translate(-792.05 -621.29)" fill="#fff"/>
        </g>
      </g>
      <g id="_Group_77" data-name="&lt;Group&gt;" transform="translate(117.706 72.392)">
        <g id="_Group_78" data-name="&lt;Group&gt;">
          <path id="_Path_78" data-name="&lt;Path&gt;" d="M787.492,625.476a4.937,4.937,0,1,1-4.928-5.176A5.06,5.06,0,0,1,787.492,625.476Z" transform="translate(-777.63 -620.3)" fill="#635b53"/>
        </g>
      </g>
      <g id="_Group_79" data-name="&lt;Group&gt;" transform="translate(111.219 65.422)" opacity="0.4">
        <g id="_Group_80" data-name="&lt;Group&gt;">
          <path id="_Path_79" data-name="&lt;Path&gt;" d="M775.031,607.09l.607,6.654-3.694,4.358-6.569.338Q764.726,609.718,775.031,607.09Z" transform="translate(-765.337 -607.09)" fill="#fff"/>
        </g>
      </g>
      <g id="_Group_81" data-name="&lt;Group&gt;" transform="translate(117.943 72.07)">
        <g id="_Group_82" data-name="&lt;Group&gt;" transform="translate(0.322 0.322)">
          <path id="_Path_80" data-name="&lt;Path&gt;" d="M787.454,624.679a4.382,4.382,0,1,1-4.385-4.379A4.384,4.384,0,0,1,787.454,624.679Z" transform="translate(-778.69 -620.3)" fill="#d3d3d3"/>
        </g>
        <g id="_Group_83" data-name="&lt;Group&gt;">
          <path id="_Compound_Path_4" data-name="&lt;Compound Path&gt;" d="M782.781,629.093a4.7,4.7,0,1,1,4.7-4.7A4.7,4.7,0,0,1,782.781,629.093Zm0-8.764a4.063,4.063,0,1,0,4.063,4.068A4.073,4.073,0,0,0,782.781,620.328Z" transform="translate(-778.08 -619.69)" fill="#a8a6a0" fill-rule="evenodd"/>
        </g>
      </g>
      <g id="_Group_84" data-name="&lt;Group&gt;" transform="translate(120.914 75.568)">
        <g id="_Group_85" data-name="&lt;Group&gt;">
          <path id="_Path_81" data-name="&lt;Path&gt;" d="M787.155,628.04a1.723,1.723,0,1,1-1.72-1.72A1.725,1.725,0,0,1,787.155,628.04Z" transform="translate(-783.71 -626.32)" fill="#bababa"/>
        </g>
      </g>
      <g id="_Group_86" data-name="&lt;Group&gt;" transform="translate(120.914 75.051)">
        <g id="_Group_87" data-name="&lt;Group&gt;">
          <path id="_Path_82" data-name="&lt;Path&gt;" d="M787.155,627.06a1.723,1.723,0,1,1-1.72-1.72A1.721,1.721,0,0,1,787.155,627.06Z" transform="translate(-783.71 -625.34)" fill="#fff"/>
        </g>
      </g>
      <g id="_Group_88" data-name="&lt;Group&gt;" transform="translate(11.666 105.559)">
        <g id="_Group_89" data-name="&lt;Group&gt;">
          <path id="_Path_83" data-name="&lt;Path&gt;" d="M577.852,687.6h-.485a.707.707,0,0,1-.707-.707v-3.023a.707.707,0,0,1,.707-.707h.485a.706.706,0,0,1,.7.707v3.023A.706.706,0,0,1,577.852,687.6Z" transform="translate(-576.66 -683.16)" fill="#aaa9a2"/>
        </g>
      </g>
      <g id="_Group_90" data-name="&lt;Group&gt;" transform="translate(24.178 105.546)">
        <g id="_Group_91" data-name="&lt;Group&gt;">
          <path id="_Path_84" data-name="&lt;Path&gt;" d="M601.913,687.553l-.48.048a.706.706,0,0,1-.77-.638l-.285-3.013a.709.709,0,0,1,.638-.77l.48-.042a.706.706,0,0,1,.77.638l.285,3.008A.706.706,0,0,1,601.913,687.553Z" transform="translate(-600.374 -683.134)" fill="#aaa9a2"/>
        </g>
      </g>
      <g id="_Group_92" data-name="&lt;Group&gt;" transform="translate(118.819 73.015)" opacity="0.4">
        <g id="_Group_93" data-name="&lt;Group&gt;">
          <path id="_Path_85" data-name="&lt;Path&gt;" d="M782.441,621.48a3.465,3.465,0,0,0-2.7,3.171l2.464.185.649-.649Z" transform="translate(-779.74 -621.48)" fill="#fff"/>
        </g>
      </g>
      <g id="_Group_94" data-name="&lt;Group&gt;" transform="translate(123.668 76.075)" opacity="0.4">
        <g id="_Group_95" data-name="&lt;Group&gt;">
          <path id="_Path_86" data-name="&lt;Path&gt;" d="M790.254,631.2a3.472,3.472,0,0,0,1.435-3.915l-2.374.681-.385.839Z" transform="translate(-788.93 -627.28)" fill="#fff"/>
        </g>
      </g>
    </g>
    <g id="Layer_4" data-name="Layer 4" transform="translate(96.222)">
      <g id="_Group_96" data-name="&lt;Group&gt;" transform="translate(0 20.764)">
        <g id="_Group_97" data-name="&lt;Group&gt;">
          <path id="_Path_87" data-name="&lt;Path&gt;" d="M593.443,347.981q-4.733-18.75-5.577-28.218c-.844-9.466-1.836-22.182,8.833-26.509q10.661-4.329,7.387,8.891-8.437,5.667-10.125,19.876Q593.042,329.738,593.443,347.981Z" transform="translate(-587.381 -292.186)" fill="#2a445d"/>
        </g>
      </g>
      <g id="_Group_98" data-name="&lt;Group&gt;" transform="translate(66.073 20.764)">
        <g id="_Group_99" data-name="&lt;Group&gt;">
          <path id="_Path_88" data-name="&lt;Path&gt;" d="M723.5,347.7q5.247-18.465,6.094-27.933c.844-9.466,1.836-22.182-8.827-26.509q-10.669-4.329-7.387,8.891,8.437,5.667,10.12,19.876Q724.416,329.738,723.5,347.7Z" transform="translate(-712.605 -292.186)" fill="#2a445d"/>
        </g>
      </g>
      <g id="_Group_100" data-name="&lt;Group&gt;" transform="translate(9.129)">
        <g id="_Group_101" data-name="&lt;Group&gt;">
          <path id="_Path_89" data-name="&lt;Path&gt;" d="M663.808,288.1q-13,2.074-21.7-2.021c-2.554-1.2-14.927,4.068-20.62,3.008-10.891-2.037-15.671-10.9-15.887-11.814-.628-2.665-3.234-6.464,4.643-12.373,10.89-8.168,24.324-6.184,26.572-8.574s4.511-3.852,8.859-3.414c11.666,1.166,12.241,8.01,18.8,9.038,8.537,1.335,11.423,4.78,11.977,11.951Q677.508,287.545,663.808,288.1Z" transform="translate(-604.682 -252.834)" fill="#2a445d"/>
        </g>
      </g>
      <g id="_Group_102" data-name="&lt;Group&gt;" transform="translate(15.67 1.665)">
        <g id="_Group_103" data-name="&lt;Group&gt;">
          <path id="_Path_90" data-name="&lt;Path&gt;" d="M644.918,255.99q-3.657,2.62-12.843,13.307c-9.181,10.685-13.961,10.03-15,10.215q7.93,1.369,16.309-9.651T644.918,255.99Z" transform="translate(-617.08 -255.99)" fill="#1f384c"/>
        </g>
      </g>
      <g id="_Group_104" data-name="&lt;Group&gt;" transform="translate(57.918 28.717)">
        <g id="_Group_105" data-name="&lt;Group&gt;">
          <path id="_Path_91" data-name="&lt;Path&gt;" d="M697.15,313.46q15.331,1.8,22.008-6.2-1.409,8.382-21.654,6.337Z" transform="translate(-697.15 -307.26)" fill="#1f384c"/>
        </g>
      </g>
      <g id="_Group_106" data-name="&lt;Group&gt;" transform="translate(9.554 19.658)">
        <g id="_Group_107" data-name="&lt;Group&gt;">
          <path id="_Path_92" data-name="&lt;Path&gt;" d="M628.652,305.571c-18.061,2.527-23.248-12.378-23.163-12.1,2.844,9.044,10.036,12.526,15.3,13.877a23.269,23.269,0,0,0,4.7.8c.565.047,1.024.069,1.372.069a.131.131,0,0,1,.037-.011q17.262.15,31.247-18.114C646.423,300.178,636.029,304.115,628.652,305.571Z" transform="translate(-605.488 -290.09)" fill="#1f384c"/>
        </g>
      </g>
    </g>
    <g id="Layer_5" data-name="Layer 5" transform="translate(98.574 51.96)">
      <g id="_Group_108" data-name="&lt;Group&gt;" transform="translate(18.444 8.808)">
        <g id="_Clip_Group_2" data-name="&lt;Clip Group&gt;" clip-path="url(#clip-path-2)">
          <path id="_Path_93" data-name="&lt;Path&gt;" d="M645.86,393.028l5.968-5.968v5.968Z" transform="translate(-635.801 -377.005)" fill="#fff"/>
          <path id="_Path_94" data-name="&lt;Path&gt;" d="M628.509,383.358l-3.129-3.129v-7.677l5.968-5.962h7.677l3.129,3.124v7.677l-5.968,5.968Z" transform="translate(-626.127 -367.335)" fill="#fff"/>
          <path id="_Path_95" data-name="&lt;Path&gt;" d="M631.348,366.59l-5.968,5.962V366.59Z" transform="translate(-626.127 -367.335)" fill="#fff"/>
        </g>
      </g>
      <g id="_Group_109" data-name="&lt;Group&gt;" transform="translate(45.684 9.336)">
        <g id="_Clip_Group_3" data-name="&lt;Clip Group&gt;" clip-path="url(#clip-path-3)">
          <path id="_Path_96" data-name="&lt;Path&gt;" d="M697.48,394.028l5.968-5.968v5.968Z" transform="translate(-687.425 -378.005)" fill="#fff"/>
          <path id="_Path_97" data-name="&lt;Path&gt;" d="M680.139,384.358l-3.129-3.124v-7.677l5.968-5.968h7.677l3.124,3.129v7.672l-5.968,5.968Z" transform="translate(-677.755 -368.335)" fill="#fff"/>
          <path id="_Path_98" data-name="&lt;Path&gt;" d="M682.978,367.59l-5.968,5.968V367.59Z" transform="translate(-677.755 -368.335)" fill="#fff"/>
        </g>
      </g>
      <g id="_Group_110" data-name="&lt;Group&gt;" transform="translate(51.911 0.201)">
        <g id="_Group_111" data-name="&lt;Group&gt;">
          <path id="_Path_99" data-name="&lt;Path&gt;" d="M699.493,357.262a10.164,10.164,0,0,0-7.413-1.81,1.64,1.64,0,0,1-1.81-2.016,1.62,1.62,0,0,1,1.076-1.2,9.685,9.685,0,0,1,10.315,2.417,1.629,1.629,0,0,1,.385,1.5l-.021.105A1.653,1.653,0,0,1,699.493,357.262Z" transform="translate(-690.225 -351.689)" fill="#2a445d"/>
        </g>
      </g>
      <g id="_Group_112" data-name="&lt;Group&gt;" transform="translate(24.15 14.225)">
        <g id="_Group_113" data-name="&lt;Group&gt;" transform="translate(27.253 0.201)">
          <g id="_Group_114" data-name="&lt;Group&gt;">
            <path id="_Path_100" data-name="&lt;Path&gt;" d="M691.191,378.65a2.531,2.531,0,1,0,1.931,2.459A2.242,2.242,0,0,0,691.191,378.65Z" transform="translate(-689.26 -378.65)" fill="#210601"/>
          </g>
        </g>
        <g id="_Group_115" data-name="&lt;Group&gt;">
          <g id="_Group_116" data-name="&lt;Group&gt;">
            <path id="_Path_101" data-name="&lt;Path&gt;" d="M639.541,378.27a2.529,2.529,0,1,0,1.936,2.459A2.245,2.245,0,0,0,639.541,378.27Z" transform="translate(-637.61 -378.27)" fill="#210601"/>
          </g>
        </g>
      </g>
      <g id="_Group_117" data-name="&lt;Group&gt;" transform="translate(0 8.516)">
        <g id="_Group_118" data-name="&lt;Group&gt;">
          <path id="_Compound_Path_5" data-name="&lt;Compound Path&gt;" d="M671.17,368.468a6.942,6.942,0,0,0-.865.354c-.96-.232-9.387,2.57-17.143,5.313a8.061,8.061,0,0,1,.179,1.683,8.141,8.141,0,0,1-15.217,4.052,2.384,2.384,0,0,1-.691-.237,2.129,2.129,0,0,1-.633-.47,2.632,2.632,0,0,1-.638-1.382,4.1,4.1,0,0,1,.38-2.575,6.8,6.8,0,0,0-10.083-.359,3.957,3.957,0,0,1,.475,2.733,2.555,2.555,0,0,1-.638,1.382,2.17,2.17,0,0,1-.633.475,2.274,2.274,0,0,1-.691.232,8.138,8.138,0,0,1-15.212-4.052,8.376,8.376,0,0,1,.174-1.678c-7.635-2.707-16.072-5.451-17.254-5.313a.728.728,0,0,0-.137.174l-.7-.28c.048-.222.274-.628.543-.675.9-.169,4.242.464,17.808,5.266a8.133,8.133,0,0,1,15.75,1.018,7.665,7.665,0,0,1,11.186.443.005.005,0,0,1,.005-.005,8.121,8.121,0,0,1,15.771-1.256C670.537,367.07,670.9,367.893,671.17,368.468Zm-45.941,7.149a7.305,7.305,0,1,0-7.308,7.3A7.313,7.313,0,0,0,625.229,375.618Zm1.008.728a1.543,1.543,0,0,0-.174-.48,7.956,7.956,0,0,1-.554,2.728,1.917,1.917,0,0,0,.206-.121,1.577,1.577,0,0,0,.348-.485A3.421,3.421,0,0,0,626.237,376.346Zm11.35,2.448a8.21,8.21,0,0,1-.554-2.728,1.685,1.685,0,0,0-.174.48,3.488,3.488,0,0,0,.174,1.641,1.51,1.51,0,0,0,.354.48A1.294,1.294,0,0,0,637.586,378.794Zm14.89-2.976a7.3,7.3,0,1,0-7.3,7.3A7.312,7.312,0,0,0,652.476,375.818Z" transform="translate(-591.84 -367.45)" fill="#302420" fill-rule="evenodd"/>
        </g>
      </g>
      <g id="_Group_119" data-name="&lt;Group&gt;" transform="translate(15.635)">
        <g id="_Group_120" data-name="&lt;Group&gt;">
          <path id="_Path_102" data-name="&lt;Path&gt;" d="M624.072,356.882a10.137,10.137,0,0,1,7.413-1.8,1.66,1.66,0,0,0,.733-3.219,9.684,9.684,0,0,0-10.315,2.417,1.629,1.629,0,0,0-.385,1.5l.026.106A1.649,1.649,0,0,0,624.072,356.882Z" transform="translate(-621.472 -351.309)" fill="#2a445d"/>
        </g>
      </g>
    </g>
    <g id="Layer_16-2" data-name="Layer 16" transform="translate(78.962 146.592)">
      <g id="_Group_121" data-name="&lt;Group&gt;" transform="translate(1.84 25.185)">
        <g id="_Group_122" data-name="&lt;Group&gt;">
          <path id="_Path_103" data-name="&lt;Path&gt;" d="M558.428,627.978q-2.129-43.3,12.495-48.928a10.5,10.5,0,0,1,8.764.7c7.74,4.084,9.666,18.911,10.262,25.638.77,8.717,1.958,21.4.417,24.947q.546-20.143-2.828-34.835c-3.377-14.695-9.74-16.309-13.8-16.082s-8.8,4.791-11.439,13.692Q559.66,602.007,558.428,627.978Z" transform="translate(-558.157 -578.391)" fill="#1a2026"/>
        </g>
      </g>
      <g id="_Group_123" data-name="&lt;Group&gt;" transform="translate(0 77.96)">
        <g id="_Group_124" data-name="&lt;Group&gt;">
          <path id="_Path_104" data-name="&lt;Path&gt;" d="M554.67,678.416c-.005-.153,1.013,3.825,4.9,4.722q3.894.894,5.92-1.2-.269,2.493.143,3.113Q555.013,686.2,554.67,678.416Z" transform="translate(-554.67 -678.412)" fill="#1a2026"/>
        </g>
      </g>
      <g id="_Group_125" data-name="&lt;Group&gt;" transform="translate(27.21 75.006)">
        <g id="_Group_126" data-name="&lt;Group&gt;">
          <path id="_Path_105" data-name="&lt;Path&gt;" d="M615.648,672.818a7.3,7.3,0,0,1-.622,3.324c-1.356,2.717-2.585,2.849-4.021,3.609q-3.53,1.868-4.765-.628a7.61,7.61,0,0,1,.232,3.06Q616.437,681.859,615.648,672.818Z" transform="translate(-606.24 -672.815)" fill="#1a2026"/>
        </g>
      </g>
      <g id="_Group_127" data-name="&lt;Group&gt;" transform="translate(16.293 0)">
        <g id="_Group_128" data-name="&lt;Group&gt;">
          <path id="_Path_106" data-name="&lt;Path&gt;" d="M585.55,531.1l2.248-.438-.142,1.15-2.105.406Z" transform="translate(-585.55 -530.66)" fill="#1a2026"/>
        </g>
      </g>
    </g>
  </g>
</svg>
