<svg xmlns="http://www.w3.org/2000/svg" width="59.879" height="51.194" viewBox="0 0 59.879 51.194">
  <g id="alli2" transform="translate(-34.5 -44)">
    <path id="Path_28842" data-name="Path 28842" d="M124.977,88.959a2.334,2.334,0,1,1-2.333-2.347A2.337,2.337,0,0,1,124.977,88.959Z" transform="translate(-46.587 -23.135)" fill="#1a2df3"/>
    <path id="Path_28843" data-name="Path 28843" d="M88.33,62.084A30.2,30.2,0,0,0,83.321,55.7c1.226-2.21,2.564-5.8,1.123-9.372L83.5,44l-2,1.515c-6.13,4.649-10.012,5.277-13,5.277a39.469,39.469,0,0,1-5.923-.619,54.187,54.187,0,0,0-8.66-.821c-11.532,0-18.582,9.046-19.238,15.578A22.613,22.613,0,0,0,41.53,84.515V95.194H82.924V84.286a17.591,17.591,0,0,0,5.515-6.776h5.939V62.084ZM90.535,73.65H85.9l-.487,1.2a13.967,13.967,0,0,1-5.429,6.777l-.9.568v9.14H64.111V88.148H60.267v3.188H45.373v-8.52l-.636-.575c-6.511-5.885-6.674-12.48-6.23-16.927.41-4.088,5.5-12.1,15.414-12.1A50.619,50.619,0,0,1,62,53.986a42.092,42.092,0,0,0,6.5.664c4.306,0,8.22-1.272,12.666-4.179a10.937,10.937,0,0,1-1.9,4.468l-1,1.435L79.6,57.512a25.924,25.924,0,0,1,5.88,7.377l.534,1.055h4.526Z" fill="#1a2df3"/>
  </g>
</svg>
