<svg xmlns="http://www.w3.org/2000/svg" width="72.08" height="40.445" viewBox="0 0 72.08 40.445">
  <g id="alli4" transform="translate(-10 -49.5)">
    <path id="Path_28852" data-name="Path 28852" d="M70.969,55.607H62.618V49.5h-40v8.622H10v2.515H25.137V52.015H60.1V82.192H41.2a5.861,5.861,0,0,0-5.464-3.938,5.719,5.719,0,0,0-5.464,3.938H25.137V78.958H22.614v6.107h7.712a5.684,5.684,0,0,0,11.254,0H64.8a5.684,5.684,0,0,0,11.254,0H82.08V68.186c-.215-7.626-4.48-12.578-11.111-12.578ZM35.624,87.257a3.089,3.089,0,1,1,3.1-3.089A3.072,3.072,0,0,1,35.624,87.257Zm34.634,0a3.089,3.089,0,1,1,3.1-3.089A3.049,3.049,0,0,1,70.259,87.257Zm9.011-4.706h-3.6a5.89,5.89,0,0,0-5.489-3.981,5.817,5.817,0,0,0-5.489,3.981H62.258V58.122h8.469c5.234,0,8.469,3.872,8.469,10.1V82.551ZM23,68.54H12.162V66.025H22.614V63.51h2.523v5.03H23Zm0,7.544h-9.04V73.57h8.65V71.055h2.523v5.03H23Z" fill="#1a2df3"/>
  </g>
</svg>
