<svg xmlns="http://www.w3.org/2000/svg" width="55.404" height="58.175" viewBox="0 0 55.404 58.175">
  <g id="alli3" transform="translate(-20 -16)">
    <path id="Path_28844" data-name="Path 28844" d="M84.287,128.3A17.424,17.424,0,0,1,66.8,110.989V107.63a1.434,1.434,0,0,1,1.454-1.42,1.456,1.456,0,0,1,1.454,1.42v3.359a14.579,14.579,0,0,0,29.157,0V100.22a1.434,1.434,0,0,1,1.454-1.42,1.456,1.456,0,0,1,1.454,1.42v10.769A17.4,17.4,0,0,1,84.287,128.3Z" transform="translate(-30.594 -54.128)" fill="#1a2df3"/>
    <path id="Path_28845" data-name="Path 28845" d="M37.66,61.639A17.616,17.616,0,0,1,20,44.117V29.02a1.434,1.434,0,0,1,1.454-1.42h7.1a1.42,1.42,0,1,1,0,2.839H22.874V44.083A14.749,14.749,0,0,0,37.66,58.73a1.454,1.454,0,1,1,0,2.909Z" transform="translate(0 -7.583)" fill="#1a2df3"/>
    <path id="Path_28846" data-name="Path 28846" d="M44.854,26.908a1.456,1.456,0,0,1-1.454-1.42V17.42A1.434,1.434,0,0,1,44.854,16a1.456,1.456,0,0,1,1.454,1.42v8.034A1.463,1.463,0,0,1,44.854,26.908Z" transform="translate(-15.297)" fill="#1a2df3"/>
    <path id="Path_28847" data-name="Path 28847" d="M68.254,61.7a1.42,1.42,0,1,1,0-2.839A14.749,14.749,0,0,0,83.04,44.217V30.539H77.4a1.42,1.42,0,1,1,0-2.839h7.1a1.456,1.456,0,0,1,1.454,1.42v15.1A17.617,17.617,0,0,1,68.254,61.7Z" transform="translate(-30.594 -7.649)" fill="#1a2df3"/>
    <path id="Path_28848" data-name="Path 28848" d="M91.754,26.908a1.456,1.456,0,0,1-1.454-1.42V17.42A1.434,1.434,0,0,1,91.754,16a1.456,1.456,0,0,1,1.454,1.42v8.034A1.486,1.486,0,0,1,91.754,26.908Z" transform="translate(-45.957)" fill="#1a2df3"/>
    <path id="Path_28849" data-name="Path 28849" d="M38.3,87.212a23.36,23.36,0,0,1-16.483-6.752,1.171,1.171,0,0,1,0-1.7,1.235,1.235,0,0,1,1.7,0,21.048,21.048,0,0,0,29.537,0,1.235,1.235,0,0,1,1.7,0,1.171,1.171,0,0,1,0,1.7A23.28,23.28,0,0,1,38.3,87.212Z" transform="translate(-0.948 -40.809)" fill="#1a2df3"/>
    <path id="Path_28850" data-name="Path 28850" d="M152.879,85.019a5.61,5.61,0,1,1,5.679-5.61A5.668,5.668,0,0,1,152.879,85.019Zm0-8.38a2.736,2.736,0,1,0,2.77,2.736A2.727,2.727,0,0,0,152.879,76.639Z" transform="translate(-83.154 -37.785)" fill="#1a2df3"/>
  </g>
</svg>
