<?xml version="1.0" encoding="iso-8859-1"?>
<!-- Generator: Adobe Illustrator 19.0.0, SVG Export Plug-In . SVG Version: 6.00 Build 0)  -->
<svg version="1.1" id="Capa_1" xmlns="http://www.w3.org/2000/svg" xmlns:xlink="http://www.w3.org/1999/xlink" x="0px" y="0px"
	 viewBox="0 0 512 512" style="enable-background:new 0 0 512 512;" xml:space="preserve">
<path style="fill:#2D69AD;" d="M113.994,512c-2.905,0-5.842-0.834-8.434-2.577c-6.943-4.665-8.79-14.075-4.124-21.02l40.769-60.673
	c4.666-6.944,14.077-8.789,21.02-4.124c6.943,4.665,8.79,14.076,4.124,21.02l-40.769,60.673C123.657,509.65,118.869,512,113.994,512
	z"/>
<path style="fill:#1B3359;" d="M399.856,512c-4.876,0-9.663-2.35-12.586-6.701l-40.769-60.673
	c-4.666-6.943-2.819-16.355,4.124-21.02c6.943-4.665,16.355-2.818,21.02,4.124l40.769,60.673c4.666,6.944,2.819,16.355-4.124,21.02
	C405.698,511.166,402.761,512,399.856,512z"/>
<path style="fill:#FFDA68;" d="M114.897,205.121c-56.552,0-102.56-46.009-102.56-102.56S58.345,0,114.897,0
	c56.551,0,102.56,46.009,102.56,102.56S171.449,205.121,114.897,205.121z"/>
<path style="fill:#FFA918;" d="M397.103,205.121c-56.551,0-102.56-46.009-102.56-102.56S340.551,0,397.103,0
	s102.56,46.009,102.56,102.56S453.655,205.121,397.103,205.121z"/>
<path style="fill:#FF5957;" d="M408.552,105.828c-40.748-40.748-94.925-63.189-152.552-63.189s-111.804,22.442-152.552,63.189
	c-40.748,40.749-63.19,94.926-63.19,152.552c0,57.627,22.442,111.805,63.19,152.552c40.748,40.749,94.925,63.19,152.552,63.19
	s111.804-22.442,152.552-63.19s63.19-94.925,63.19-152.552C471.741,200.754,449.3,146.576,408.552,105.828z"/>
<path style="fill:#E0F4FF;" d="M256,418.936c-88.531,0-160.556-72.025-160.556-160.556S167.469,97.823,256,97.823
	s160.556,72.025,160.556,160.556S344.531,418.936,256,418.936z"/>
<path style="fill:#2D69AD;" d="M289.048,306.575c-3.877,0-7.752-1.478-10.71-4.437l-33.047-33.048
	c-2.841-2.841-4.437-6.693-4.437-10.71v-68.405c0-8.365,6.782-15.147,15.147-15.147s15.147,6.782,15.147,15.147v62.131l28.61,28.611
	c5.915,5.914,5.915,15.505,0,21.421C296.8,305.095,292.923,306.575,289.048,306.575z"/>
<path style="fill:#FC1B5B;" d="M256.002,42.639v431.483c57.626,0,111.803-22.442,152.551-63.19s63.19-94.925,63.19-152.552
	c0-57.626-22.442-111.804-63.19-152.552S313.627,42.639,256.002,42.639z"/>
<path style="fill:#B7E3FF;" d="M256.002,97.823v321.113c88.53-0.001,160.555-72.026,160.555-160.556S344.532,97.824,256.002,97.823z
	"/>
<path style="fill:#1B3359;" d="M271.147,252.106v-62.131c0-8.365-6.781-15.146-15.146-15.147v104.975l22.336,22.336
	c2.958,2.959,6.833,4.437,10.71,4.437c3.876,0,7.753-1.479,10.71-4.437c5.915-5.914,5.915-15.505,0-21.421L271.147,252.106z"/>
<g>
</g>
<g>
</g>
<g>
</g>
<g>
</g>
<g>
</g>
<g>
</g>
<g>
</g>
<g>
</g>
<g>
</g>
<g>
</g>
<g>
</g>
<g>
</g>
<g>
</g>
<g>
</g>
<g>
</g>
</svg>
