<svg width="75" height="71" viewBox="0 0 75 71" fill="none" xmlns="http://www.w3.org/2000/svg">
<path d="M40.6844 65.3094C29.6508 68.2659 18.3096 61.718 15.3531 50.6844C12.3967 39.6508 18.9445 28.3096 29.9782 25.3531C41.0118 22.3967 52.353 28.9445 55.3094 39.9781C58.2659 51.0118 51.718 62.353 40.6844 65.3094Z" fill="#0074BC" fill-opacity="0.3"/>
<path d="M40.6844 65.3094C29.6508 68.2659 18.3096 61.718 15.3531 50.6844C12.3967 39.6508 18.9445 28.3096 29.9782 25.3531C41.0118 22.3967 52.353 28.9445 55.3094 39.9781C58.2659 51.0118 51.718 62.353 40.6844 65.3094Z" fill="url(#paint0_linear)" fill-opacity="0.8"/>
<circle cx="53" cy="43" r="20.5" stroke="#023264" stroke-width="3"/>
<rect x="51" y="30" width="4" height="16" rx="2" fill="#023264"/>
<path d="M62.4727 47.0018C63.4227 47.5654 63.736 48.7923 63.1725 49.7423C62.609 50.6923 61.382 51.0056 60.432 50.4421L52 45.4402L54.0408 42L62.4727 47.0018Z" fill="#023264"/>
<path d="M9.93286 24.4494L19.5394 22.4893L17.7232 44.5911L12.7164 45.7261L9.93286 24.4494Z" fill="#023264"/>
<path d="M16.0858 34.7167L22.7451 33.2071L27.0459 58.044L17.3556 44.4229L16.0858 34.7167Z" fill="#023264"/>
<path d="M32.2369 0.0191574L39.7116 2.92629L28.6729 17.3214L24.727 15.8843L32.2369 0.0191574Z" fill="#023264"/>
<path d="M31.9207 9.80546L37.169 11.7169L29.1255 30.7025L28.4947 17.043L31.9207 9.80546Z" fill="#023264"/>
<defs>
<linearGradient id="paint0_linear" x1="55.3094" y1="39.9781" x2="15.1685" y2="52.6265" gradientUnits="userSpaceOnUse">
<stop stop-color="#0074BC"/>
<stop offset="0.619792" stop-color="white" stop-opacity="0"/>
</linearGradient>
</defs>
</svg>
