<svg width="72" height="72" viewBox="0 0 72 72" fill="none" xmlns="http://www.w3.org/2000/svg">
<circle cx="22.0023" cy="27.0023" r="17.9648" transform="rotate(75 22.0023 27.0023)" fill="#0074BC" fill-opacity="0.2"/>
<circle cx="22.0023" cy="27.0023" r="17.9648" transform="rotate(75 22.0023 27.0023)" fill="url(#paint0_linear)" fill-opacity="0.6"/>
<path d="M11.2421 3.40353C4.7325 10.6141 -3.29931 26.7178 16.65 33.4477H24.762M32.8739 3.40353C50.1793 13.9791 40.0845 27.8395 32.8739 33.4477H24.762M24.762 33.4477C19.4541 48.7702 18.1522 68.5994 31.3717 65.595C41.2863 61.9897 41.5867 35.2504 51.2008 67.3976" stroke="#023264" stroke-width="3"/>
<circle cx="12.4395" cy="3" r="3" fill="#023264"/>
<circle cx="32.8695" cy="3" r="3" fill="#023264"/>
<circle cx="52.0978" cy="68.2946" r="3" fill="#023264"/>
<path d="M51 16.675C51 21.9217 55.2533 26.175 60.5 26.175C65.7467 26.175 70 21.9217 70 16.675C70 11.4283 65.7467 7.175 60.5 7.175" stroke="#F2C94C" stroke-width="2.85"/>
<path d="M53.375 7.99773C52.7417 7.63207 52.7417 6.71793 53.375 6.35228L59.7875 2.65002C60.4208 2.28436 61.2125 2.74143 61.2125 3.47274L61.2125 10.8773C61.2125 11.6086 60.4208 12.0656 59.7875 11.7L53.375 7.99773Z" fill="#F2C94C"/>
<defs>
<linearGradient id="paint0_linear" x1="22.0023" y1="9.03749" x2="22.0023" y2="44.967" gradientUnits="userSpaceOnUse">
<stop stop-color="#0074BC"/>
<stop offset="1" stop-color="white" stop-opacity="0"/>
</linearGradient>
</defs>
</svg>
