<svg width="70" height="72" viewBox="0 0 70 72" fill="none" xmlns="http://www.w3.org/2000/svg">
<circle cx="22.0023" cy="27.0023" r="17.9648" transform="rotate(75 22.0023 27.0023)" fill="#0074BC" fill-opacity="0.2"/>
<circle cx="22.0023" cy="27.0023" r="17.9648" transform="rotate(75 22.0023 27.0023)" fill="url(#paint0_linear)" fill-opacity="0.6"/>
<path d="M11.2421 3.40353C4.7325 10.6141 -3.29931 26.7178 16.65 33.4477H24.762M32.8739 3.40353C50.1793 13.9791 40.0845 27.8395 32.8739 33.4477H24.762M24.762 33.4477C19.4541 48.7702 18.1522 68.5994 31.3717 65.595C41.2863 61.9897 41.5867 35.2504 51.2008 67.3976" stroke="#023264" stroke-width="3"/>
<circle cx="12.4394" cy="3" r="3" fill="#023264"/>
<circle cx="32.8695" cy="3" r="3" fill="#023264"/>
<circle cx="52.0978" cy="68.2946" r="3" fill="#023264"/>
<rect x="56.5833" y="5" width="3.83333" height="23" fill="#F2C94C"/>
<rect x="70" y="14.5833" width="3.83333" height="23" transform="rotate(90 70 14.5833)" fill="#F2C94C"/>
<defs>
<linearGradient id="paint0_linear" x1="22.0023" y1="9.03749" x2="22.0023" y2="44.967" gradientUnits="userSpaceOnUse">
<stop stop-color="#0074BC"/>
<stop offset="1" stop-color="white" stop-opacity="0"/>
</linearGradient>
</defs>
</svg>
